<?xml version="1.0" encoding="utf-8"?>
<!-- Generator: Adobe Illustrator 21.1.0, SVG Export Plug-In . SVG Version: 6.00 Build 0)  -->
<svg version="1.1" id="Calque_1" xmlns="http://www.w3.org/2000/svg" xmlns:xlink="http://www.w3.org/1999/xlink" x="0px" y="0px"
	 viewBox="0 0 1000 500" style="enable-background:new 0 0 1000 500;" xml:space="preserve">
<style type="text/css">
	.st0{fill:#A6C1DC;}
	.st1{fill:#43853E;}
	.st2{fill:#D0A72C;}
	.st3{fill:#091536;}
	.st4{fill:#D8D3CD;}
	.st5{fill:#479344;}
	.st6{fill:#655C5D;}
	.st7{fill:#205C95;}
	.st8{fill:#42853E;}
	.st9{fill:#494142;}
	.st10{fill:#5A8957;}
	.st11{fill:#847D7E;}
	.st12{fill:#615B5C;}
	.st13{fill:#A6C3E3;}
	.st14{fill:#EEEDE9;}
	.st15{fill:#EFF0EC;}
	.st16{fill:#BEB9B4;}
	.st17{fill:#F5F6F5;}
	.st18{fill:#346D37;}
	.st19{fill:#182456;}
	.st20{fill:#0F1C56;}
	.st21{fill:#0A183F;}
	.st22{fill:#0E1328;}
	.st23{fill:#857D7D;}
	.st24{fill:#A6C1DB;}
	.st25{fill:#FDFDFC;}
	.st26{fill:#F1633E;}
	.st27{fill:#336D35;}
</style>
<g>
	<path class="st0" d="M-6.8,69c0-25.3,0-50.7,0-76c338,0,676.1,0,1014.1,0c0.6,0.4,1.1,0.8,1.7,1.2c0,24.5,0,49.1,0,73.6
		c-0.5,0.4-1.1,0.8-1.6,1.1c-3.3,1.2-6.6,2.4-9.9,3.5c-17.2-15.1-34.4-30.2-51.7-45.4c5.8-2.6,11.5-5.3,17.4-7.7
		c9.8-4,9.8-3.9,1.8-10.2c-2-7.2-6.1,0.3-9-0.7c-3.6-0.4-7.1-0.7-10.7-1.1c-6-0.5-9.3,1.3-9.2,5.8c-2.9,0.1-5.8,0.1-8.7,0.2
		c-8.9,1.2-10.3,4.1-4.6,9.2c-0.9,0.2-1.7,0.4-2.6,0.6c-3.1-0.1-6.1-0.3-9.2-0.4c-2.4,0-6.6-0.3-6.8,0.2c-0.9,2.3-0.8,4.9-1,7.3
		c-4.4,2-8.7,4-13.3,5.9c-18.3,7.5-36.7,14.8-55.1,22.3c-1.8,0.1-3.7,0.1-5.5,0.2c-6.4-1-9.5,0.8-9.3,5.5c-2.9,0.1-5.8,0.2-8.7,0.2
		c-10.5-0.9-7.4,4.9-8.2,9.1c-2.9,0.2-5.6,0.4-8.2,0.5c-7.5-2.2-8.9-1.4-9.6,5.3c-17.5,7.3-34.9,14.5-52.4,21.8
		c-2.1,0-4.1,0.1-6.2,0.1c0,0,0.1,0,0.1,0c-0.6,0-1.2,0.1-1.7,0.1c-6.6-0.9-8.4,1.7-8.3,5.7c-3.2,0-6.4,0-9.6,0
		c-6.7-0.2-7.9,2.9-8,6.8c-2.5,0.9-5,1.8-7.5,2.7c-2.5,0-7-0.4-7.1-0.1c-0.7,2.4-0.6,5-0.7,7.5c0.5,7.5,6.8,10,15.8,6.3
		c20.7-8.5,41.4-17.1,62.2-25.6c6.2,14.2,12.5,28.4,18.7,42.6c-3.2,1.1-6.3,2.4-9.6,3.3c-23.4,6.1-46.8,12.2-70.4,18
		c-11.9,2.9-24.1,5.2-36.3,7.6c-15.1,2.9-30.2,5.5-45.4,8.3c-26.4,2.7-52.7,6.8-79.2,7.8c-53.6,2.2-106.9-0.3-159.5-9
		c-27.2-5.2-54.4-10.5-81.5-15.7c-0.3-1.9-0.6-3.9-0.8-5.8c-1.2-10.8-2.3-21.6-3.4-32.5c3.5,1.1,6.8,2.7,10.5,3
		c2.7,0.3,5.8-0.9,8.5-1.7c0.3-0.1-0.7-2.3-1.1-3.5c1.8-2.7,3.6-5.5,5.3-8.2c-4.1-0.6-8.2-1.3-12.4-1.8c-0.9-0.1-2,0.5-3.1,0.7
		c-0.6-0.8-1.3-1.6-1.9-2.4c0.6-4.4-0.2-7.9-8.3-7.1c-0.5,0-1,0-1.4,0c0,0,0.2,0.2,0.2,0.2c-2.6-0.2-5.1-0.3-7.7-0.5
		c1.8-5.7-2.6-6.3-8.8-5.4c-2.2-0.1-4.3-0.3-6.5-0.4c-17.9-7.2-35.9-14.5-53.8-21.7c0.7-4.3-0.2-7.7-8.1-6.8c-3.2,0-6.5-0.1-9.7-0.1
		c1.8-6.8,0.6-8-8.2-8.1c-2.4-0.1-4.9-0.2-7.3-0.4c-0.9-4.8-3.2-7.9-11.2-5.5c-1.3,0.4-3.2-0.1-4.8-0.1c-2.6-1.1-5.1-2.2-7.7-3.3
		c-19.7-8.4-39.3-16.8-59-25.2c-0.3-3.9,1.9-9.2-8.1-8.1c-3.3,0.3-6.6,0.7-9.9,1c-1.2-0.1-2.4-0.2-3.6-0.3c7.2-4.2,6.7-6.7-1.8-9.3
		c-0.4,0.1-0.9,0.1-1.3,0.2c0,0,0,0,0,0c-3.3,0-6.6,0-9.9-0.1c1.3-4.8-2-6.3-8.1-5.8C52,9,48.9,9.4,45.8,9.8
		c-3.5-1.2-7-2.3-11.1-3.7c0,2.8,0,4.9,0,7c-2.1,0.7-4.1,1.4-7.7,2.6c4.3,2,7.2,3.3,10.1,4.7c5.4,2.5,10.7,5.1,16,7.6
		c-0.5,0.7-0.8,1.5-1.4,2.1C36.1,43.9,20.5,57.7,4.9,71.4C1,70.6-2.9,69.8-6.8,69z"/>
	<path class="st1" d="M519.4,506c-54.8,0-109.5,0-164.3,0c5.8-10.3,11.7-20.6,17.5-30.9c3.6-6.4,7.1-12.8,10.5-19
		c-51.8,0-102.2,0-152.6,0c7.3-6.8,14.3-13.7,21.9-20.3c10.8-9.5,22-18.9,33-28.3c10.3,3.9,12.7,2.9,13.3-5.9c0-0.4,0-0.8,0-1.2
		c34.3,0,68.6,0,102.9,0c0.7,0.7,1.4,1.4,2.1,2.1c1-0.7,1.9-1.4,2.9-2.1c2.8,0,5.6,0,8.4,0c-6.6,12-13.2,24-19.8,36
		c-3.3,5.9-6.6,11.8-10.2,18.1c2.9,0.2,4.6,0.4,6.2,0.4c38.4,0,76.9,0,115.3,0c2.2,0,4.3-0.5,6.5-0.6c5.2-0.3,6.6-2.3,6.6-5.9
		c-0.3-16-0.1-32-0.1-48.1c36.5,0,73,0,109.5,0c7.8,17.8,15.6,35.6,23.3,53.4c-41.6,0.4-83.1,0.9-124.7,1.1c-6.8,0-8.3,1.7-8.3,6.2
		C519.6,476,519.4,491,519.4,506z"/>
	<path class="st1" d="M-6.8,457.3c0-18.6,0-37.2,0-55.8c2.7-0.4,5.4-0.8,8.1-1.2c56,0,111.9,0.1,167.9,0.1c-1.3,1.5-2.2,3.3-4,4.3
		c-22.5,13.5-45.2,26.9-67.7,40.4c-5.6,3.4-11,7-17.4,11.1c50,0,97.7,0,145.4,0c-0.8,1.5-1.2,3.1-2.5,4.3
		c-9.3,8.5-18.9,16.8-28.2,25.3c-7.2,6.6-13.9,13.4-20.8,20.2c-58.6,0-117.3,0-175.9,0c14-8.8,27.9-17.6,41.9-26.3
		c11.6-7.2,23.3-14.2,36.7-22.4C47.2,457.3,20.2,457.3-6.8,457.3z"/>
	<path class="st2" d="M1009,206.7c0,6.7,0,13.5,0,20.2l-0.3-0.4c0,0-0.7,0.1-0.7,0.1c-2.4,0.2-4.8,0.4-7.3,0.6
		c-14,1.9-28,3.8-42,5.7c-25.3,3.5-50.6,7.1-75.9,10.7c-10.6,1.2-21.3,2.4-31.9,3.7c-32.9,4.1-65.7,8.3-98.5,12.5
		c-6.8,1-13.6,2-20.5,3c-13.5,1.1-26.9,2.1-40.4,3.2c-7.3,0.5-14.6,1-21.9,1.4c-25.2,1.2-50.4,3.4-75.7,3.4
		c-72.3,0.1-144.5-0.3-216.8-1.2c-23.5-0.3-47-2.7-70.4-4.2c-13.2-0.8-26.4-1.7-39.6-2.6c-3.1-0.8-6.1-1.8-9.2-2.2
		c-25.3-3.4-50.6-6.7-75.9-9.8c-20.1-2.5-40.2-4.5-60.3-6.8c-10-1.7-20-3.8-30.2-5.1c-14-1.9-28.1-3-42.1-4.9
		c-18.8-2.5-37.4-5.5-56.2-8.3c0-5.5,0-11.1,0-16.6c8.8,1.9,17.6,3.8,26.4,5.6c2.8,0,5.5,0,8.3,0c0.6,0.1,1.2,0.1,1.9,0.2
		c14.3,2.1,28.7,4.2,43,6.4c3.9,0.6,7.8,1.3,11.7,1.9c2.7,0.4,5.4,0.8,8,1.2c18.3,2.6,36.7,5.3,55,7.9c2.9,0.2,5.8,0.5,8.7,0.7
		c1.6,0.4,3.1,0.9,4.7,1.1c29.3,3.6,58.6,7.3,88,10.6c19.9,2.2,39.9,3.9,59.8,5.8c3.8,0.8,7.7,1.5,11.5,2.3c1.7,0,3.3,0.1,5,0.1
		c8.7,0.4,17.5,0.7,26.2,1.3c64.1,4.6,128.3,5.9,192.7,4.7c20.9-0.4,41.8-0.3,62.7-1.4c17.8-0.9,35.4-3.1,53.1-4.6
		c24.2-2,48.4-3.8,72.6-5.8c4.8-0.4,9.4-1.9,14.1-2.5c21.6-2.9,43.3-5.6,65-8.4c1.9-0.3,3.7-0.6,5.6-0.9c4.2-0.5,8.4-1,12.6-1.5
		c4.9-0.7,9.9-1.5,14.8-2.2c2.7-0.7,5.4-1.5,8.2-2.2c1.2,0.3,2.5,1.1,3.5,0.9c17.3-2.6,34.5-5.4,51.7-8.1c2.7-0.4,5.5-0.9,8.2-1.3
		c18.3-3,36.7-6,55-9c2.8-0.5,5.7-0.9,8.5-1.4C989.4,209.3,999.2,208,1009,206.7z"/>
	<path class="st3" d="M-6.8,225.7c18.7,2.8,37.4,5.7,56.2,8.3c14,1.9,28.1,3,42.1,4.9c10.1,1.4,20.1,3.4,30.2,5.1
		c0.3,2.1-0.2,5.6,1,5.9c6.2,1.7,8.1,5.9,12.1,8.7c9.5,6.5,16.7,13.8,22.5,22.1c0.9,1.4,3.5,2.1,5.3,3.2c0.2,4.6,2,8,9.9,7.1
		c4.7,5.5,7.1,12,15.2,16.1c4.1,2.1,6.7,5.8,9.9,8.8c-3.4,0.8-6.8,1.7-10.1,2.5l-0.3,0.2l-0.4-0.1c-2.1-0.4-5.2-0.4-6-1.4
		c-4.3-5-10.5-4.8-17.1-3.7c-14.7,2.4-29.3,4.8-43.9,7.5c-1.9,0.3-3.2,2.3-4.7,3.5c2.1,1,4,2.3,6.3,2.9c1.2,0.3,3.1-0.5,4.7-0.8l0,0
		c-2.1,1.7-4.2,3.4-6.3,5.1c0,0,0.1-0.1,0.1-0.1c-5.5,0.3-12.1-2.3-15.3,3.2c-0.4,0.1-0.9,0.2-1.4,0.1c-2.3,0.7-4.6,1.4-6.9,2
		c-0.6,0.4-1.1,0.9-1.7,1.3c-13.9,3-27.8,6-41.6,9.1c-19.9,4.5-39.7,9.1-59.6,13.6C-6.8,316-6.8,270.9-6.8,225.7z M112.7,306.5
		c3.7,1.2,7.3,2.4,10.9,3.6c5-5.7,5.2-5.7,13.7-4.2c5-0.5,9.9-1,14.9-1.6c-1.1-1.7-2.2-2.4-3.4-2.4c-6.8-0.1-13.7-0.6-20.3,0.2
		C123.1,302.7,118,304.9,112.7,306.5c-5.4,0.5-10.8,0.8-16,1.7c-1.4,0.2-2.5,2.1-3.3,3.4c-0.1,0.2,2.4,1.8,2.8,1.6
		c1.4-0.6,2.3-1.7,3.4-2.6c0.7-0.5,1.3-1.1,1.9-1.6C106.2,309.6,112.8,315,112.7,306.5z M81.2,318.4c-7.2,1-14.4,1.8-21.5,3
		c-7.4,1.2-14.7,2.7-22,4.1c-5.6,1.1-11.1,2.2-18.1,3.7c6.6,1.1,11.8,2,17,2.8c1-7.1,6.8-3.6,11.6-2.6c1.2-1.2,2.9-3.6,3.5-3.4
		c7.5,1.6,13.9-1.2,20.8-2C78.6,323.3,80.9,322.3,81.2,318.4c2.5,1.3,5,2.7,7.6,4c3.1-1.7,6.3-3.6,9.5-5.4c-0.3-0.6-0.5-1.2-0.8-1.8
		C92.1,316.2,86.6,317.3,81.2,318.4z M17.1,295.2c3.6,2.4,6.6,4.3,9.9,6.5c1.8-1.7,3.4-3.2,3.4-3.3c16.1-1.2,30.1-2.3,45.8-3.6
		c0,0,2,0.9,4.2,2c3.7-3.8,3-5.8-3.3-5.8c-6.4,0-13,0.7-14.9-5.7c-0.2-0.7-3.7-1.4-5.6-1.4c-14.5,0.3-28.9,0.9-43.4,1
		c-7.2,0.1-7.4,2.5-5.8,6.6c5.1-4.8,5.1-4.8,12.2-1.3c2.8-0.9,6.6-3,7.8-2.4c7.9,3.8,15.1-0.5,22.3-1c6.9-0.5,7.4,0.8,7.7,4.4
		C43.8,292.7,30.7,293.9,17.1,295.2z M140.8,285c-2.2-2-3.5-4.2-4.9-4.2c-10.7-0.4-21.4-0.5-32.1-0.4c-6,0.1-9.2,1.9-6.5,6.7
		c12.5-2.5,12.5-2.5,16.8,5.3c8.3-0.7,16.4-1.3,24.5-2c0.2,0.8,0.3,1.6,0.5,2.4c-9.2,1.4-18.3,3-27.5,4c-6.8,0.8-8.2,2.4-4.7,6.3
		c2.8-1.3,5.6-3.7,8.2-3.5c6.5,0.4,12-3.9,19.5-1c3.6,1.4,10.4-1.3,15.4-2c-4.3-6.9-9.6-9.1-21-8.7c-4.1,0.2-8.3-0.7-12.4-1
		c0-0.6,0.1-1.3,0.1-1.9C123.9,285,131,285,140.8,285z M33.4,247.8c0-0.8,0.1-1.5,0.1-2.3c4-0.5,7.9-1,12.7-1.5
		c-7.7-4-34.3-5.3-42-2.3c8.6,1,16.9,2,25.3,3c0,0.7-0.1,1.5-0.1,2.2c-8.4,0-16.8,0-27,0c4.3,3.4,6.7,5.3,9.4,7.5
		c2.1-1.9,3.6-3.3,5.7-5.3c4.3,5.9,8.8,4.7,11.4,2.1c12.2,0.8,22.6,1.5,33.9,2.2c0-0.1,0.6-1.7,1.1-3.2
		C53.1,249.3,43.3,248.5,33.4,247.8z M38,319.7c5.4-1.5,9.9-3.9,11.8-3.1c7.7,3.3,13.2-2.7,20-1.7c0.5,0.1,1.6-1.7,3.3-3.5
		c-4.6,0-7.9-0.3-11,0.1c-12,1.5-24,3.2-36,4.8c-3.8,0.5-7.5,1.2-11.2,1.9c-5.9,1.1-6.1,3.7-3.9,7.1C20.4,321.6,29,317.5,38,319.7z
		 M29.8,275.7c-0.2-0.4-0.4-0.9-0.6-1.3c-1.8,0.7-3.8,1.2-5.3,2.2c-0.5,0.3,0.1,2.4,0.6,2.5c1.6,0.2,3.4,0,5.1-0.2
		c1.6-0.2,3.1-0.6,4.7-0.7c8.1-0.4,16.2-0.8,24.4-1c4.5-0.1,9.1,0.3,13.6,0.4c2.2,0,4.4-0.2,6.6-0.3c-2-1.3-4-3.7-6-3.8
		c-10.4-0.1-20.7,0.3-31.1,0.7C37.7,274.4,33.8,275.2,29.8,275.7z M21.7,258.9c4.4,7.6,7.6,0.6,11.1,0.1c2.4,1.2,4.7,2.3,6.8,3.3
		c2.6-1.2,4.8-2.3,6.9-3.3c8.5,4.6,10.3,4.4,12.1-1.9c-16.6,0-33,0-49.5,0C13.1,258.5,14.2,266.8,21.7,258.9z M34.4,271.4
		c3.4-1.1,6-2.6,8.6-2.7c5.6-0.1,11.1,0.6,16.7,0.8c1,0,2.1-1.1,4.7-2.7c-22,0-41.9,0-59.2,0c0.6,1,1.8,2.8,3.2,5.1
		c4.3-4.5,8.7-4.5,13.1-0.3C26,267.1,30.3,267.4,34.4,271.4z M110.3,271.5c8.3-5.9,19.2-1,27.7-4.4c-12.6-1-25.2-1.5-37.8-1.6
		c-4.8,0-9.8,0.7-14.5,1.6c-1.4,0.3-2.1,2.2-3.2,3.4c0.7,0.3,1.3,0.6,2,0.9C89.9,267.4,102.4,267.4,110.3,271.5z M43.2,305
		c-0.4-0.8-0.8-1.5-1.3-2.3c-10.7,1.5-21.5,2.9-32,4.8c-1.7,0.3-2.5,3.3-4,5.4c2.6,0.3,3.3,0.5,3.6,0.4c2.7-1.3,5.3-2.6,8.2-4.1
		c1.4,0.9,2.8,1.9,4.3,2.9c5.7-7,6.5-7.2,13.4-2.4C38.1,308.2,40.6,306.6,43.2,305z M49.4,337.4c-0.4-0.9-0.9-1.8-1.3-2.7
		c-12,2.5-23.9,5-37.9,8c4.2,2.1,6.5,3.2,8.9,4.4c3.3-5.6,3.3-5.6,9.3-4.3C37.4,340.5,43.4,339,49.4,337.4z M86.1,253.9
		c0.2,0.7,0.3,1.4,0.5,2.2c9.5,0.6,19,1.2,31.2,2c-2-2-3.1-4.2-4.6-4.4c-6.3-0.8-12.8-1.2-19.3-1.3
		C91.4,252.4,88.7,253.4,86.1,253.9z M47.5,307.3c4.1-1.1,7.1-2.2,10.3-2.8c1.7-0.3,3.7,0.4,5.6,0.6c0.2-0.7,0.7-2,0.5-2.1
		c-1.9-0.6-3.9-1.1-5.9-1.3c-1.9-0.2-3.8,0-5.8,0C46.1,301.7,45.4,303.7,47.5,307.3z M164.1,292.5c-4.2,0.2-7.4,0.4-11.5,0.6
		C161.5,297,161.5,297,164.1,292.5z M153.9,288.8c-0.9-0.5-1.4-1-2-1c-0.6,0-1.2,0.5-1.7,0.8c0.5,0.4,0.9,0.9,1.4,1
		C152.2,289.6,152.8,289.2,153.9,288.8z"/>
	<path class="st4" d="M618.8,184.3c15.1-2.8,30.3-5.4,45.4-8.3c12.2-2.3,24.4-4.6,36.3-7.6c23.6-5.8,47-11.9,70.4-18
		c3.3-0.9,6.4-2.2,9.6-3.3c2.6-0.7,5.3-1.5,7.9-2.2c1.7-0.8,3.5-1.6,5.2-2.4c1.6-0.4,3.2-0.8,4.7-1.2c5.5-1.5,11-3.1,16.5-4.6
		c1.2-0.5,2.4-0.9,3.6-1.4c4.8-1.2,9.8-2,14.3-3.6c10.3-3.7,20.3-7.8,30.4-11.8c1.6,0,3.3,0,5,0c5.7-2,11.4-4,17.1-6
		c1.4-0.7,2.8-1.4,4.2-2.1c3.6-1.4,7.1-2.8,10.7-4.2c2.2-0.7,4.4-1.3,6.6-2c1.5-0.4,3-0.8,4.5-1.2c5.5-2,11.1-3.9,16.6-5.9
		c1.2-0.4,2.3-0.9,3.5-1.3c13.9-5.1,27.8-10.3,41.7-15.4c1-0.8,2.1-1.5,3.1-2.3c5.7-2,11.3-4,17-6.1c1.5-0.4,3.1-0.7,4.6-1.1
		c3.3-1.2,6.6-2.4,9.9-3.5c0.5,0,1.1,0.1,1.6,0.1c0,7.9,0,15.8,0,23.7c-8.9,3.5-17.7,7-26.6,10.5c-37.1,13.9-74.1,27.8-111.2,41.8
		c-2,0.7-4,1.4-6,2.1c-18.1,6.3-36.2,12.6-54.3,18.9c-1.5,0.5-3,0.9-4.5,1.4c-42.2,13.9-84.9,27.1-129.6,36.6
		c-9.3,1.4-18.5,2.7-27.8,4.1c-1.8,0.2-3.5,0.5-5.3,0.7C631.3,202.8,624.8,193.7,618.8,184.3z"/>
	<path class="st4" d="M-6.8,69c3.9,0.8,7.8,1.6,11.7,2.4c1.1,0.8,2.1,1.5,3.2,2.3c6.1,1.6,12.2,3.2,18.2,4.8
		c1.1,0.8,2.1,1.5,3.2,2.3c8.8,3.5,17.6,7.1,26.5,10.5c3.8,1.5,8,2.4,12,3.6c1.5,0.8,3.1,1.7,4.6,2.5c5.6,2,11.2,4,16.8,5.9
		c1.4,0,2.9,0,4.3,0c1.9,1.3,3.8,2.6,5.6,3.9c4.4,1.5,8.9,2.9,13.3,4.4c1.5,0.4,3.1,0.8,4.6,1.1c5.7,2,11.3,4.1,17,6.1
		c1.1,0.4,2.2,0.8,3.4,1.1c1.5,0.8,2.8,1.9,4.4,2.4c12.9,4.4,25.9,8.7,38.8,13c1.5,0,3.1,0,4.6-0.1c5.2,2,10.3,4,15.5,6
		c1.6,0.4,3.2,0.8,4.8,1.2c2.2,0.8,4.4,1.6,6.6,2.4c2.7,0.4,5.4,0.9,8.1,1.3c2.3,0.8,4.7,1.6,7,2.5c1-0.1,2.1-0.1,3.1-0.2
		c0,0,0,0,0,0c0.6,0,1.1,0.1,1.7,0.1c4.5,2,8.9,4,13.4,6c1.6,0.3,3.1,0.7,4.7,1c8.6,2.5,17.2,4.9,25.8,7.4c0.1,0,0.7-0.9,1.1-1.4
		c1.5,0.8,3,1.6,4.5,2.5c4.4,0.7,8.9,1.5,13.3,2.2c1.2,0.4,2.4,0.8,3.6,1.3c27.2,5.2,54.4,10.5,81.5,15.7c-1,2-1.6,4.2-3.1,5.9
		c-6,6.7-12.3,13.2-18.5,19.8c-0.6,0.1-1.1,0.2-1.7,0.3c-1.7-0.4-3.4-0.8-5-1.2c-7-1.1-14.1-1.9-20.9-3.3
		c-17.9-3.9-35.7-8.1-53.5-12.1c-8.8-2-17.6-4-26.4-6c-1.8-1-3.6-2-5.3-3c-16.7-5.4-33.5-10.8-50.2-16.1c-3.7-1.3-7.5-2.6-11.2-3.9
		c-16.5-5.7-33-11.5-49.5-17.2c-2.3-0.9-4.6-1.7-6.8-2.6c-34.2-13-68.4-26-102.6-38.9c-10.6-4-21.3-7.9-31.9-11.9
		C-6.8,84.8-6.8,76.9-6.8,69z"/>
	<path class="st5" d="M1005.7,506c-54.2,0-108.4,0-162.7,0c-0.3-0.7-0.4-1.6-1-2.2c-17.3-16.7-34.8-33.4-52.1-50c0,0,0,0,0,0
		c51.5,0,103-0.1,154.5-0.1c1.6,0,3.2,0.1,4.8,0.1c0.5,0.9,0.7,2.1,1.7,2.6c11.6,6.9,22.6,14.6,35.3,20.2
		C1002.3,483.7,1009,492.8,1005.7,506z"/>
	<path class="st5" d="M174.1,506c6.9-6.7,13.7-13.6,20.8-20.2c9.2-8.5,18.9-16.8,28.2-25.3c1.3-1.2,1.7-2.9,2.5-4.3
		c1.6,0,3.2-0.1,4.9-0.1c50.4,0,100.8,0,152.6,0c-3.4,6.2-6.9,12.6-10.5,19c-5.8,10.3-11.6,20.6-17.5,30.9
		C294.7,506,234.4,506,174.1,506z"/>
	<path class="st1" d="M789.9,453.7c17.4,16.7,34.8,33.3,52.1,50c0.6,0.6,0.7,1.5,1,2.2c-55.3,0-110.7,0-166,0
		c-3.3-7.8-6.6-15.7-9.8-23.5c-4-9.6-7.9-19.1-11.8-28.7C700.2,453.7,745.1,453.7,789.9,453.7z"/>
	<path class="st5" d="M655.4,453.8c3.9,9.6,7.8,19.1,11.8,28.7c3.2,7.8,6.5,15.7,9.8,23.5c-52.6,0-105.1,0-157.7,0
		c0-15,0.2-30-0.1-45c-0.1-4.5,1.4-6.2,8.3-6.2c41.6-0.2,83.2-0.7,124.7-1.1C653.3,453.7,654.4,453.7,655.4,453.8z"/>
	<path class="st6" d="M-6.8,92.7c10.7,3.9,21.3,7.8,31.9,11.9c34.2,12.9,68.4,25.9,102.6,38.9c-3.8,2.2-7.5,4.6-11.6,6.5
		c-23.4,11.3-46.8,22.5-70.4,33.6c-6.8,3.2-14.1,6-21.2,8.9c-10.5-2.8-21-5.5-31.5-8.3C-6.8,153.7-6.8,123.2-6.8,92.7z"/>
	<path class="st6" d="M1.3,400.2c-2.7,0.4-5.4,0.8-8.1,1.2c0-4,0-7.9,0-11.9c3.4-0.8,6.8-1.5,10.1-2.5c19-6.1,38-12.2,57-18.4
		c12.5-4,24.9-8.1,37.3-12.2c1.1-0.2,2.2-0.3,3.3-0.5c2.6-0.7,5.1-1.4,7.7-2.1c29.1-8.9,58.6-16.9,90.5-19c47.5,0,95,0,142.6-0.1
		c3.8,0.1,7.7,0.2,11.5,0.2c32.1,0.1,64.3,0.2,96.4,0.2c2.3,0.7,4.5,2,6.8,2c42.5,0.1,85,0.1,127.4,0c2.3,0,4.6-1.3,6.8-2
		c13.3,0,26.6,0,39.9,0c2.8,0.7,5.7,2,8.5,2c43.1,0.1,86.2,0.1,129.3,0.1c2,0,4.1-0.2,6.1-0.3c0-0.3,0-0.6,0-0.9c-2.7,0-5.4,0-8.1,0
		c-28.5,0-56.9,0-85.4,0c-2.9,0-5.9-0.6-8.8-0.9c7.2-0.1,14.3-0.3,21.5-0.4c37,0,74,0.1,111.1,0.1c10.2,1.4,20.9,2.1,30.6,4.5
		c25.2,6.2,49.9,13.2,74.9,19.7c2.8,0.7,6.1,0.6,9.2,0.9c1.9,1.3,3.6,2.9,5.8,3.7c19.2,6.3,38.5,12.6,57.8,18.6
		c8.5,2.7,17.2,4.8,25.9,7.2c0,4,0,7.9,0,11.9c-0.5,0-1.1,0-1.6,0c-1.7-0.4-3.4-0.8-5-1.3c-0.6,0-1.2,0-1.9-0.1
		c-0.9,0-1.9,0-2.8-0.1c-1.4-1.1-2.5-2.6-4.2-3.2c-8.2-3.3-16.6-6.5-25-9.4c-15.1-5.3-30.4-10.5-45.6-15.7
		c-15-5.5-29.9-11.1-44.9-16.6c-6-2.3-11.7-5.2-18-6.7c-12.4-2.9-25-6.4-37.8-7.2c-19.5-1.2-39.2-0.3-58.9-0.3
		c-29.3,0-58.6,0-87.9,0c-23.8,0-47.6,0-71.5,0c-31,0-61.9,0-92.9,0c-17.7,0-35.4,0-53.2,0c-32.6,0-65.3,0-97.9-0.1
		c-29.3-0.3-58.7-0.6-88-0.9c-21.8-0.1-43.6-0.4-65.4-0.2c-25.6,0.2-48.9,6.3-70.8,15.4c-8.2,2.6-16.4,5.2-24.5,8
		c-6.8,2.3-13.5,5-20.3,7.4c-7.1,2-14.3,3.8-21.1,6.1C47,384.4,24.2,392.4,1.3,400.2z"/>
	<path class="st7" d="M97.6,356.5c-12.4,4.1-24.9,8.1-37.3,12.2c-19,6.1-37.9,12.3-57,18.4c-3.2,1-6.7,1.7-10.1,2.5
		c0-9.5,0-19,0-28.5c19.9-4.5,39.7-9.1,59.6-13.6c13.8-3.1,27.8-6.1,41.6-9.1c0.6,2.3,1.3,4.7,1.7,7
		C96.7,349.1,97.1,352.8,97.6,356.5z"/>
	<path class="st7" d="M1009,389.6c-8.6-2.4-17.4-4.6-25.9-7.2c-19.4-6.1-38.6-12.3-57.8-18.6c-2.2-0.7-3.9-2.4-5.8-3.7
		c-0.6-6.3-1.1-12.6-1.7-18.9c14.2,3,28.4,6,42.5,9.1c15.7,3.5,31.4,7.2,47,10.7c0.6,0,1.1,0.1,1.7,0.1
		C1009,370.6,1009,380.1,1009,389.6z"/>
	<path class="st5" d="M-6.8,457.3c27,0,54,0,83.6,0c-13.5,8.2-25.2,15.3-36.7,22.4c-14,8.7-27.9,17.5-41.9,26.3
		c-2.7-0.1-5.3,0.7-5.2-3C-6.5,487.8-6.8,472.5-6.8,457.3z"/>
	<path class="st8" d="M1005.7,506c3.3-13.1-3.4-22.3-19.5-29.4c-12.7-5.6-23.7-13.4-35.3-20.2c-0.9-0.5-1.1-1.7-1.7-2.6
		c19.4,0,38.7,0,58.1-0.1c0,17.4,0,34.9,0.1,52.3C1006.8,506,1006.2,506,1005.7,506z"/>
	<path class="st0" d="M-6.8,184.2c10.5,2.8,21,5.5,31.5,8.3c-1.7,7.4-3.4,14.8-5,22.3c-8.8-1.9-17.6-3.8-26.4-5.6
		C-6.8,200.8-6.8,192.5-6.8,184.2z"/>
	<path class="st0" d="M1009,206.7c-9.8,1.3-19.6,2.6-29.3,3.9c-0.9-2.9-1.7-5.8-2.6-8.7c2.2-1.2,4.3-2.7,6.8-3.5
		c6.8-2.1,13.7-3.9,20.6-5.8c0.9-0.1,1.9-0.3,2.8-0.4c0.6,0.1,1.2,0.1,1.8,0.2C1009,197.2,1009,202,1009,206.7z"/>
	<path class="st12" d="M1009,95.1c-0.6,0.4-1.1,0.8-1.7,1.2c-3.1,3.2-6.2,6.3-8.6,8.8c-4.7,0-9.8,0.1-14.8-0.1c-0.5,0-1-1.2-1.4-1.8
		c8.9-3.5,17.7-7,26.6-10.5C1009,93.5,1009,94.3,1009,95.1z"/>
	<path class="st14" d="M358.4,208.9c6.2-6.6,12.5-13.1,18.5-19.8c1.6-1.7,2.1-3.9,3.1-5.9c52.5,8.6,105.9,11.2,159.5,9
		c26.5-1.1,52.8-5.1,79.2-7.8c6,9.4,12.5,18.5,25,24.5c-4.9,0.5-9.8,1.1-14.7,1.6c-3.3-1.8-6.3-2.6-8.4,1c-1.1,0.1-2.2,0.2-3.3,0.3
		c-0.9-0.8-1.8-1.5-2.7-2.3c-0.8,1-1.6,2-2.3,3c-1.7,0.1-3.3,0.2-5,0.2c-4.2-1.5-8.3-2.7-11.6,1.1c-1.1,0.1-2.2,0.1-3.3,0.2
		c-10.9-1.1-21.9-3.1-31.7,2.5c-1,0-2.1,0-3.1,0c-4.9-4.7-12-1-18-2c-4.5-0.8-10.2,1.8-15.3,2.9c-5.5,0-11.1,0.1-16.6,0.1
		c-2.2-3.3-4.4-3.3-6.6,0c-7.2,0-14.4-0.1-21.6-0.1c-0.6-0.6-1.1-1.8-1.7-1.8c-13.2-0.5-26.4-1-39.5-1.3c-0.6,0-1.2,1.1-1.8,1.7
		c-12.8-0.3-25.5-0.6-38.3-0.9c-2.7-0.8-5.5-1.5-8.2-2.3c-1.6-0.1-3.3-0.2-4.9-0.3C376.2,211.3,367.3,210.1,358.4,208.9z"/>
	<path class="st11" d="M965,9.2c8,6.2,8,6.2-1.8,10.2c-5.9,2.4-11.6,5.2-17.4,7.7c-3.3,1.3-6.5,2.6-9.8,3.9c-3.3,1.5-6.7,3-10,4.5
		c-3.9,1.6-7.7,3.3-11.6,4.9c-12.1,4.9-24.2,9.7-36.2,14.6c-1.7,0.7-2.8,2.2-4.2,3.3c-2.2,0.9-4.5,1.7-6.7,2.6
		c-8.2,3.1-16.3,6.3-24.5,9.4c-2.1,0.7-4.2,1.5-6.3,2.2c-3.4,1.6-6.8,3.1-10.1,4.7c-3.4,1.5-6.8,3.1-10.3,4.6
		c-4.3,1.6-8.6,3.1-13,4.7c-0.7,0.4-1.3,0.8-2,1.2c-10.9,4.8-21.7,9.5-32.6,14.3c-2.3,0.8-4.6,1.6-6.9,2.4
		c-20.7,8.5-41.4,17-62.2,25.6c-9,3.7-15.3,1.2-15.8-6.3c2.2,0.2,4.4,0.4,6.6,0.6c9,2.2,9.9-3.6,13.2-6.9c1-0.1,2.1-0.1,3.1-0.2
		c7.2,0.4,10.6-3,13.5-6.9c1.6-0.1,3.1-0.2,4.7-0.3c3.3-0.7,6.7-1.4,10-2.1c12-5.1,24-10.1,36-15.2c8-3.5,16-7.1,23.9-10.6
		c6.6-2.9,13.3-5.7,19.9-8.6c3.9-2,7.8-4,11.7-6c0.9-0.2,1.8-0.4,2.8-0.7c3.1-1,6.2-2,9.3-3c14.9-6.1,29.9-12.1,44.7-18.4
		c10.6-4.5,20.8-9.3,31.2-13.9c1.5-0.7,3-1.4,4.6-2.1c4.5-1.9,9-3.9,13.5-5.8c4.4-2.5,8.8-4.9,13.2-7.4c0,0,0,0,0,0
		c2.1,0,4.2,0,6.4-0.1c0.7-0.4,1.4-0.7,2.1-1.1c0,0-0.1,0.1-0.1,0.1C957.7,13.4,961.3,11.3,965,9.2z"/>
	<path class="st11" d="M312.2,127.1c0.4,1.2,1.3,3.4,1.1,3.5c-2.7,0.8-5.8,2-8.5,1.7c-3.6-0.4-7-2-10.5-3c-0.9-0.7-1.8-1.4-2.7-2.1
		c-1.5-0.4-3-0.8-4.6-1.1c-5-2.3-9.9-4.6-14.9-6.8c-0.9-0.2-1.7-0.3-2.6-0.5c-1.9-0.9-3.8-1.7-5.7-2.6c-8.4-3.5-16.8-7.1-25.2-10.6
		c-2.5-0.7-5.1-1.3-7.6-2c-0.8-1-1.2-2.4-2.4-2.9c-9.7-4-19.5-7.8-29.3-11.6c-1.7-0.8-3.5-1.7-5.2-2.5c-3.1-1.1-6.3-2.3-9.4-3.4
		c-3.5-1.7-7-3.5-10.5-5.2c-3.4-1.3-6.8-2.7-10.2-4c-2.1-0.8-4.3-1.7-6.4-2.5c-8-3.5-16-7-24-10.5c-2.4-0.8-4.9-1.6-7.3-2.4
		c-13.9-6-27.7-12-41.6-17.9c-3.9-1.4-7.8-2.8-11.7-4.2c-2.6-1.1-5.3-2.2-7.9-3.4c-4-1.6-8-3.2-12-4.8c-5.3-2.5-10.7-5.1-16-7.6
		c-2.9-1.4-5.8-2.7-10.1-4.7c3.6-1.2,5.7-1.9,7.7-2.6c4.1,1.2,8.2,2.4,12.3,3.6c0.9,0.4,1.7,0.8,2.6,1.2c5.6,2,11.1,3.9,16.7,5.9
		c0,0-0.1-0.1-0.1-0.1c5,2.4,10.1,4.8,15.1,7.2c0.6,0,1.1,0.2,1.4,0.5c11.5,5.2,23,10.5,34.7,15.5c14.8,6.3,29.8,12.3,44.7,18.4
		c5.1,1.6,10.1,3.2,15.2,4.7c5.3,2.5,10.6,4.9,15.9,7.4c0.2,0.4,0.4,0.8,0.6,1.2c4,1.6,7.9,3.1,11.9,4.7c5.1,2.2,10.1,4.6,15.3,6.7
		c14.7,6,29.4,12,44.1,18c9,3.1,18.1,6.2,27.1,9.3c4.8,3.4,5.5-1,7.9-2.1c0.6,0.8,1.3,1.6,1.9,2.4
		C297.2,125.5,306.8,125.1,312.2,127.1z"/>
	<path class="st15" d="M914.4,40.5c3.9-1.6,7.7-3.3,11.6-4.9c2.4,2,4.8,4,7.1,6c0.8-0.1,1.5-0.3,2.3-0.4c0.2-3.4,0.4-6.7,0.6-10.1
		c3.3-1.3,6.5-2.6,9.8-3.9c17.2,15.1,34.4,30.2,51.7,45.4c-1.5,0.4-3,0.7-4.6,1.1c-12.8-10.8-25.6-21.6-38.4-32.4
		c-4-3.4-8.2-6.6-13-10.5c-3.5,9.4-4.1,17,5.1,24.1c10.3,7.9,19.5,16.5,29.2,24.8c-1,0.8-2.1,1.5-3.1,2.3
		c-11.2-9.7-22.4-19.3-35.1-30.3c-2.4,16.5-4.5,31.1-6.5,45.7c-1.2,0.4-2.3,0.9-3.5,1.3c1.7-15.3,3.5-30.6,5.2-45.9
		c0.6-5.4-5.1-11-13.5-12.9c-2.8,21.6-5.5,43.2-8.3,64.7c-1.5,0.4-3,0.8-4.5,1.2c-0.3-1.5-0.5-3-0.8-4.4c1-4,2.3-8,2.8-12.1
		C910.6,73,912.5,56.7,914.4,40.5z"/>
	<path class="st15" d="M53.1,28.1c4,1.6,8,3.2,12,4.9c0,3.4,0,6.7,0,10.1c0.7,0.1,1.3,0.3,2,0.4c2-2.4,4-4.8,6-7.1
		c3.9,1.4,7.8,2.8,11.7,4.2c1.7,13.3,3.2,26.6,5.2,39.9c1.1,7.2,2.8,14.3,4.3,21.5c-0.1,0.5-0.2,1.1-0.4,1.6c-1.4,0-2.9,0-4.3,0
		c-3-21.1-6-42.3-9.1-63.4c-0.7-0.1-1.5-0.2-2.2-0.3c-4,4.9-13,7.4-11.7,15c2.5,14.2,4.2,28.5,6.2,42.7c-1.5-0.8-3.1-1.7-4.6-2.5
		c-1.8-13.5-3.6-27.1-5.3-40.6c-0.7-0.1-1.4-0.2-2.1-0.3c-10.4,8.9-20.7,17.9-31.1,26.8c-1.1-0.8-2.1-1.5-3.2-2.3
		c7.9-6.6,15.8-13.1,23.6-19.7c12.6-10.7,13.8-14.6,8.3-27.2C45,42.4,32.1,53,19.2,63.7c-3.9,3.2-7.4,6.7-11.1,10
		c-1.1-0.8-2.1-1.5-3.2-2.3c15.6-13.7,31.3-27.5,46.8-41.3C52.4,29.6,52.7,28.8,53.1,28.1z"/>
	<path class="st6" d="M162.2,65.4c-14.9-6.1-30-12.1-44.7-18.4c-11.7-5-23.1-10.3-34.7-15.5c2.3,0.1,4.6,0.3,6.9,0.4
		c2.7-0.3,5.4-0.6,8.1-1c19.7,8.4,39.3,16.8,59,25.2c2.6,1.1,5.1,2.2,7.7,3.3C163.8,61.5,163,63.5,162.2,65.4z"/>
	<path class="st12" d="M914.4,31.9c-10.4,4.6-20.7,9.4-31.2,13.9C868.4,52,853.4,58,838.5,64.1c-1.2-1.9-2.5-3.8-3.7-5.7
		c18.4-7.4,36.8-14.8,55.1-22.3c4.5-1.8,8.8-3.9,13.3-5.9c2.1,0.4,4.2,0.7,6.3,1C911.1,31.5,912.7,31.7,914.4,31.9z"/>
	<path class="st6" d="M794.8,82.4c-8,3.5-15.9,7.1-23.9,10.6c-11.9,5.1-24,10.2-36,15.2c-0.7-2.4-1.3-4.8-2-7.1
		c17.5-7.3,34.9-14.5,52.4-21.8c1.4,0.6,2.7,1.2,4.1,1.8C791.1,81.5,793,81.9,794.8,82.4z"/>
	<path class="st12" d="M265.1,108.1c-14.7-6-29.4-11.9-44.1-18c-5.2-2.1-10.2-4.5-15.3-6.7c0.2-0.2,0.2-0.4-0.1-0.5
		c2.7-0.8,5.5-1.6,8.2-2.3c17.9,7.2,35.9,14.5,53.8,21.7C266.8,104.2,266,106.1,265.1,108.1z"/>
	<path class="st12" d="M761.7,104.6c2.3-0.8,4.6-1.6,6.9-2.4c6.6,14.3,13.2,28.6,19.8,42.9c-2.6,0.7-5.3,1.5-7.9,2.2
		C774.2,133,767.9,118.8,761.7,104.6z"/>
	<path class="st15" d="M794.8,82.4c-1.8-0.4-3.7-0.9-5.5-1.3c6-0.7,7.8-3.1,5.5-7.1c2.7-0.2,5.4-0.4,8.2-0.5c0.8-4.2-2.3-10,8.2-9.1
		c0.3,2.5,0.5,5.1,1.1,7.6c0.2,0.7,1.6,1.2,2.4,1.8C808.1,76.6,801.4,79.5,794.8,82.4z"/>
	<path class="st16" d="M265.1,108.1c0.8-2,1.6-3.9,2.5-5.9c2.2,0.1,4.3,0.3,6.5,0.4c0.7,2.6,1.3,5.1,2,7.7c2.3-0.8,4.5-1.5,6.8-2.3
		c2.6,0.2,5.1,0.3,7.7,0.5c0.5,3,1.1,6,1.6,9C283.2,114.3,274.2,111.2,265.1,108.1z"/>
	<path class="st17" d="M312.2,127.1c-5.4-1.9-15.1-1.6-10.1-9.3c1-0.3,2.1-0.8,3.1-0.7c4.2,0.5,8.3,1.2,12.4,1.8
		C315.8,121.6,314,124.3,312.2,127.1z"/>
	<path class="st15" d="M291.5,127.1c0.9,0.7,1.8,1.4,2.7,2.1c1.1,10.8,2.3,21.6,3.4,32.5c0.2,1.9,0.5,3.9,0.8,5.8
		c-1.2-0.4-2.4-0.8-3.6-1.2c-1.5-10.8-3.2-21.5-4.5-32.3C290.2,131.6,291.1,129.3,291.5,127.1z"/>
	<path class="st17" d="M162.2,65.4c0.8-1.9,1.5-3.9,2.3-5.8c1.6,0.1,3.5,0.5,4.8,0.1c7.9-2.4,10.3,0.7,11.2,5.5c0,0,0.2,0.1,0.2,0.1
		c-0.5,0.4-1,0.8-1.4,1.2c-0.6,1.2-1.2,2.4-1.9,3.6C172.3,68.6,167.3,67,162.2,65.4z"/>
	<path class="st16" d="M945.7,16.6c-4.4,2.5-8.8,4.9-13.2,7.4c-1.6-0.3-3.2-0.5-4.8-0.8c-0.1-3.3-0.2-6.5-0.3-9.8
		c2.9-0.1,5.8-0.1,8.7-0.2C939.3,14.4,942.5,15.5,945.7,16.6z"/>
	<path class="st16" d="M177.4,70.1c0.6-1.2,1.2-2.4,1.9-3.6c0.5-0.4,1-0.8,1.4-1.2c0,0-0.2-0.1-0.2-0.1c2.4,0.1,4.9,0.2,7.3,0.4
		c-2.2,3.4-2.3,6.3,3.3,8.3c1.3,0.5,1.5,2.4,2.2,3.6C188,75,182.7,72.6,177.4,70.1z"/>
	<path class="st16" d="M814.7,73.7c-0.8-0.6-2.2-1.1-2.4-1.8c-0.6-2.5-0.7-5.1-1.1-7.6c2.9-0.1,5.8-0.2,8.7-0.2
		c2.1,1.2,4.3,2.5,6.4,3.7C822.5,69.8,818.6,71.8,814.7,73.7z"/>
	<path class="st17" d="M292.2,117.4c-0.5-3-1.1-6-1.6-9c0,0-0.2-0.2-0.2-0.2c0,0,0.7,0.1,0.7,0.1l0.7-0.1c8.1-0.9,8.9,2.7,8.3,7.1
		C297.8,116.5,297,120.9,292.2,117.4z"/>
	<path class="st16" d="M703.6,117.6c-3.3,3.4-4.3,9.1-13.2,6.9c0.4-2.7,0.8-5.4,1.2-8.1c2.5-0.9,5-1.8,7.5-2.7
		C700.5,115.1,702.1,116.4,703.6,117.6z"/>
	<path class="st16" d="M720.2,110.5c-2.9,3.9-6.3,7.3-13.5,6.9c2.7-3.4,5.7-6.8,0.3-10.4c3.2,0,6.4,0,9.6,0
		C717.8,108.2,719,109.4,720.2,110.5z"/>
	<path class="st17" d="M720.2,110.5c-1.2-1.2-2.3-2.4-3.5-3.5c-0.1-4,1.8-6.6,8.4-5.7c0.6,0,1.2-0.1,1.7-0.1c0,0-0.1,0-0.1,0
		c-0.6,3-1.2,6-1.8,9.1C723.3,110.3,721.7,110.4,720.2,110.5z"/>
	<path class="st15" d="M707,107c5.3,3.6,2.4,7-0.3,10.4c-1,0.1-2.1,0.1-3.1,0.2c-1.5-1.3-3.1-2.5-4.6-3.8
		C699.1,110,700.3,106.8,707,107z"/>
	<path class="st17" d="M945.7,16.6c-3.2-1.1-6.4-2.3-9.6-3.4c-0.1-4.5,3.2-6.2,9.2-5.8C945.4,10.5,945.6,13.6,945.7,16.6
		C945.8,16.6,945.7,16.6,945.7,16.6z"/>
	<path class="st17" d="M909.4,31.3c-2.1-0.3-4.2-0.7-6.3-1c0.2-2.5,0.1-5,1-7.3c0.2-0.5,4.5-0.1,6.8-0.2
		C910.5,25.6,909.9,28.5,909.4,31.3z"/>
	<path class="st17" d="M193.3,77.5c-0.7-1.2-1-3.1-2.2-3.6c-5.6-2-5.5-4.9-3.3-8.3c8.8,0.1,10,1.3,8.2,8.1c-0.7,1.7-1.4,3.3-2.1,5
		C193.7,78.3,193.5,77.9,193.3,77.5z"/>
	<path class="st17" d="M826.4,67.8c-2.1-1.2-4.3-2.5-6.4-3.7c-0.2-4.7,2.9-6.5,9.3-5.5c0,2.8-0.1,5.7-0.1,8.5
		C828.3,67.3,827.3,67.6,826.4,67.8z"/>
	<path class="st17" d="M97.8,31c-2.7,0.3-5.4,0.6-8.1,1c0-3,0-6,0-9.1C99.7,21.8,97.5,27.1,97.8,31z"/>
	<path class="st17" d="M691.5,116.5c-0.4,2.7-0.8,5.4-1.2,8.1c-2.2-0.2-4.4-0.4-6.6-0.6c0.1-2.5,0-5.1,0.7-7.5
		C684.5,116.1,689,116.4,691.5,116.5z"/>
	<path class="st17" d="M74.3,14.3c8.5,2.6,9,5.1,1.8,9.3c-1.1,0.1-2.1,0.1-3.2,0.2c-3.5-3.1-3.6-6.2,0-9.3c0,0,0,0,0,0
		C73.4,14.4,73.9,14.4,74.3,14.3z"/>
	<path class="st17" d="M55,8.6c6.1-0.5,9.4,1,8.1,5.8c-0.1,0.7-0.1,1.5-0.2,2.2c-2.7,0.3-5.4,0.6-8.1,0.9C54.9,14.5,55,11.5,55,8.6z
		"/>
	<path class="st16" d="M193.9,78.7c0.7-1.7,1.4-3.3,2.1-5c3.2,0,6.5,0.1,9.7,0.1c0,3-0.1,6.1-0.1,9.1c0.3,0.1,0.4,0.3,0.1,0.5
		C201.8,81.8,197.9,80.3,193.9,78.7z"/>
	<path class="st17" d="M794.8,73.9c2.2,4,0.5,6.4-5.5,7.1c-1.4-0.6-2.7-1.2-4.1-1.8C785.9,72.5,787.3,71.7,794.8,73.9z"/>
	<path class="st17" d="M282.9,108c-2.3,0.8-4.5,1.5-6.8,2.3c-0.7-2.6-1.3-5.1-2-7.7C280.3,101.7,284.7,102.3,282.9,108z"/>
	<path class="st17" d="M927.4,13.4c0.1,3.3,0.2,6.5,0.3,9.8c-1.6-0.2-3.3-0.4-4.9-0.6C917.1,17.5,918.5,14.6,927.4,13.4z"/>
	<path class="st17" d="M205.7,82.9c0-3,0.1-6.1,0.1-9.1c7.9-0.9,8.8,2.4,8.1,6.8C211.1,81.3,208.4,82.1,205.7,82.9z"/>
	<path class="st12" d="M47.1,16.7c-4.1-1.2-8.2-2.4-12.3-3.6c0-2.1,0-4.2,0-7c4.1,1.4,7.6,2.5,11.1,3.7
		C46.2,12.1,46.6,14.4,47.1,16.7z"/>
	<path class="st16" d="M62.9,16.6c0.1-0.7,0.1-1.5,0.2-2.2c3.3,0,6.6,0,9.9,0.1c-3.7,3.1-3.5,6.2,0,9.3c-2.2,0-4.5,0-6.7,0
		c0,0,0.1,0.1,0.1,0.1C65.2,21.4,64.1,19,62.9,16.6z"/>
	<path class="st16" d="M89.7,22.9c0,3,0,6,0,9.1c-2.3-0.1-4.6-0.3-6.9-0.4C82.4,31.2,82,31,81.4,31c-0.6-2.4-1.1-4.7-1.7-7.1
		C83.1,23.6,86.4,23.2,89.7,22.9z"/>
	<path class="st16" d="M909.4,31.3c0.5-2.9,1.1-5.7,1.6-8.6c3.1,0.1,6.1,0.3,9.2,0.4c-0.4,2.2-0.8,4.4-1.2,6.6
		c-1.5,0.7-3,1.4-4.6,2.1C912.7,31.7,911.1,31.5,909.4,31.3z"/>
	<path class="st16" d="M724.9,110.2c0.6-3,1.2-6,1.8-9.1c2.1,0,4.1-0.1,6.2-0.1c0.7,2.4,1.3,4.8,2,7.1
		C731.5,108.9,728.2,109.6,724.9,110.2z"/>
	<path class="st16" d="M47.1,16.7c-0.4-2.3-0.8-4.6-1.2-6.9C48.9,9.4,52,9,55,8.6c-0.1,3-0.1,5.9-0.2,8.9c-1.7,0.2-3.5,0.3-5.2,0.5
		C48.8,17.5,47.9,17.1,47.1,16.7z"/>
	<path class="st16" d="M945.8,16.6c-0.2-3.1-0.3-6.1-0.5-9.2c3.6,0.4,7.1,0.7,10.7,1.1c-0.6,2.3-1.2,4.7-1.9,7c0,0,0.1-0.1,0.1-0.1
		c-0.7,0.4-1.4,0.7-2.1,1.1C950,16.6,947.9,16.6,945.8,16.6z"/>
	<path class="st16" d="M829.2,67.1c0-2.8,0.1-5.7,0.1-8.5c1.8-0.1,3.7-0.1,5.5-0.2c1.2,1.9,2.5,3.8,3.7,5.7
		C835.4,65.1,832.3,66.1,829.2,67.1z"/>
	<path class="st12" d="M954.1,15.5c0.6-2.3,1.2-4.7,1.9-7c2.9,1,7-6.6,9,0.7C961.3,11.3,957.7,13.4,954.1,15.5z"/>
	<path class="st6" d="M79.7,23.9c0.6,2.4,1.1,4.7,1.7,7.1c-5-2.4-10.1-4.8-15.1-7.2c2.2,0,4.5,0,6.7,0c1.1-0.1,2.1-0.1,3.2-0.2
		C77.4,23.7,78.5,23.8,79.7,23.9z"/>
	<path class="st12" d="M919,29.8c0.4-2.2,0.8-4.4,1.2-6.6c0.9-0.2,1.7-0.4,2.6-0.6c1.6,0.2,3.3,0.4,4.9,0.6c1.6,0.3,3.2,0.5,4.8,0.8
		C928,25.9,923.5,27.9,919,29.8z"/>
	<path class="st16" d="M291.9,108.3l-0.7,0.1c0,0-0.7-0.1-0.7-0.1C290.9,108.3,291.4,108.3,291.9,108.3z"/>
	<path class="st16" d="M74.3,14.3c-0.4,0.1-0.9,0.1-1.3,0.2C73.4,14.4,73.9,14.3,74.3,14.3z"/>
	<path class="st16" d="M726.7,101.2c-0.6,0-1.2,0.1-1.7,0.1C725.6,101.2,726.2,101.2,726.7,101.2z"/>
	<path class="st18" d="M230.5,456c-1.6,0-3.2,0.1-4.9,0.1c-47.7,0-95.4,0-145.4,0c6.4-4.1,11.7-7.7,17.4-11.1
		c22.5-13.5,45.2-26.9,67.7-40.4c1.8-1.1,2.7-2.9,3.9-4.3c2.7-0.1,5.4-0.1,8.1-0.1c38.5,0,76.9,0,115.4,0c0.5,0.8,1,1.6,1.5,2.3
		c-3,1.6-5.9,3.2-8.9,4.9c-11,9.4-22.2,18.8-33,28.3C244.8,442.4,237.7,449.3,230.5,456z"/>
	<path class="st18" d="M655.4,453.8c-1.1,0-2.1-0.1-3.2-0.1c-7.8-17.8-15.6-35.6-23.3-53.4c0,0,0,0,0,0c35.4,0,70.9-0.1,106.3-0.1
		c1.6,0,3.2,0.1,4.9,0.1c1,1.8,1.5,3.8,3,5.3c7.4,7.8,15.1,15.4,22.7,23.1c8.1,8.3,16.1,16.7,24.2,25c0,0,0,0,0,0
		C745.1,453.7,700.2,453.7,655.4,453.8z"/>
	<path class="st18" d="M519.3,400.3c0,16-0.1,32,0.1,48.1c0.1,3.6-1.4,5.6-6.6,5.9c-2.2,0.1-4.4,0.6-6.5,0.6c-38.4,0-76.9,0-115.3,0
		c-1.6,0-3.2-0.2-6.2-0.4c3.6-6.3,6.9-12.2,10.2-18.1c6.6-12,13.2-24,19.8-36c1.1,0,2.1-0.1,3.2-0.1
		C451.8,400.2,485.6,400.3,519.3,400.3L519.3,400.3z"/>
	<path class="st8" d="M285.3,407.4c3-1.6,5.9-3.2,8.9-4.9c-0.5-0.8-1-1.6-1.5-2.3c-38.5,0-76.9,0-115.4,0c2.3-2.5,4-5.6,7.1-7.5
		c11.3-6.9,23.1-13.4,36.3-20.9c-4.8,0-7.4,0-10.1,0c-36.7,0-73.4,0-110.2-0.1c-3.1,0-6.3-0.8-9.4-1.2c6.7-2.5,13.4-5.1,20.3-7.4
		c8.1-2.8,16.3-5.3,24.5-8c36.1,0,72.1,0.1,108.2,0.1c-1.4,1.6-2.5,3.4-4.3,4.6c-5.4,3.7-11.2,7.1-16.8,10.6
		c0.2,0.4,0.5,0.9,0.7,1.3c33.3,0,66.6,0,99.9,0c-0.9,1.2-1.5,2.5-2.6,3.5c-7.4,6.8-14.9,13.4-22.1,20.3c-1.2,1.1-6.4,3-0.2,4.6
		c0,0.4,0,0.8,0,1.2C298,410.3,295.6,411.3,285.3,407.4z"/>
	<path class="st5" d="M298.6,400.3c-6.2-1.6-1-3.5,0.2-4.6c7.2-6.9,14.8-13.5,22.1-20.3c1.1-1,1.8-2.4,2.6-3.5
		c1.6,0,3.2-0.1,4.8-0.1c34.9,0,69.8,0.1,104.7,0.1c-1.4,2.4-2.8,4.7-4,7.1c-3.7,7.1-7.3,14.2-10.9,21.3c-1.1,0-2.1,0.1-3.2,0.1
		c-2.8,0-5.6,0-8.4,0c-1.7,0-3.3,0-5,0C367.2,400.3,332.9,400.3,298.6,400.3z"/>
	<path class="st5" d="M628.9,400.3c-36.5,0-73,0-109.5,0c0,0,0,0,0,0c0-9.5,0-19,0-28.5c31.6,0,63.1-0.1,94.7-0.1
		c1.1,0,2.1,0.1,3.2,0.1c0.4,2.1,0.4,4.3,1.3,6.3C621.8,385.5,625.4,392.9,628.9,400.3L628.9,400.3z"/>
	<path class="st8" d="M401.5,400.3c1.7,0,3.3,0,5,0c-1,0.7-1.9,1.4-2.9,2.1C402.9,401.7,402.2,401,401.5,400.3z"/>
	<path class="st5" d="M91.1,370.5c3.1,0.4,6.3,1.2,9.4,1.2c36.7,0.1,73.4,0.1,110.2,0.1c2.7,0,5.3,0,10.1,0
		c-13.2,7.6-25,14-36.3,20.9c-3.1,1.9-4.8,5-7.1,7.5c-2.7,0-5.4,0.1-8.1,0.1c-56,0-111.9-0.1-167.9-0.1
		c22.9-7.9,45.7-15.8,68.6-23.6C76.8,374.4,84,372.6,91.1,370.5z"/>
	<path class="st19" d="M197.5,315.9c-3.2-3-5.8-6.7-9.9-8.8c-8.1-4.1-10.5-10.6-15.2-16.1c1.9-1.5,3.9-4.3,5.8-4.3
		c2.8,0.1,5.5,2.1,8.3,3.4c4.3-7.5,8-1.3,11.9,1.1c1.9-1.8,3.5-3.2,5.2-4.9c2.7,1.1,5.1,2,7.5,2.9c4.5-6.3,8.2-0.9,12.6,0.7
		c5.3-6.9,9.4-1.9,13.9,1.1c4.8-5,9.4-4.6,13.8,0.3c4-5.1,8.3-5.1,12.2-1.1c2.4-1.4,4.3-2.6,6.7-3.9c-13.4-0.7-26.5-1.8-39.6-2.1
		c-22.7-0.4-45.5-0.3-68.2-0.4c-1.8-1-4.4-1.8-5.3-3.2c-5.7-8.3-13-15.6-22.5-22.1c-4-2.8-6-7-12.1-8.7c-1.2-0.3-0.7-3.9-1-5.9
		c20.1,2.2,40.3,4.3,60.3,6.8c25.3,3.1,50.6,6.5,75.9,9.8c3.2,0.4,6.2,1.5,9.2,2.2c-1.1,0.7-2.3,1.4-3.4,2.1
		c-9.6-0.8-19.2-1.6-28.9-2.4c-12-1-23.9-2.2-36-2.9c-14.7-0.9-29.4-1.4-45.2-2.1c3.9,1.8,6.5,3,9.1,4.2c0-0.3,0.1-0.6,0.1-0.9
		c3.6,0.5,7.1,1.1,12.1,1.8c3.5-2.6,8-1.9,11.7,2.6c2.6-1.5,4.6-2.7,6.9-4c2.1,1.3,3.9,2.4,5.7,3.5c3.6-0.8,6.7-0.3,9.7,0.1
		c1.2,0.2,2.8,0.6,3.5,0.3c5.2-2.7,7.9-0.9,9.4,3.5c4.4-4.2,8.3-5.4,11.8-0.3c4.6-4.3,8.4-4.2,11.7,0.2c0,0.8,0,1.6,0,2.4
		c-12.6,0-25.2,0-36.7,0c0.9,0.5,2.9,1.7,4.9,3c0.1-0.4,0.3-0.8,0.4-1.2c4.2,0.7,8.3,1.3,13.5,2.1c4.4-3.9,7.6-0.5,10.9,3.5
		c4.5-5.2,9-4.6,12.5-1.1c2.4-1.2,4.4-2.1,6.6-3.2c-2.3-0.8-3.9-1.4-5.6-1.9c1.1-3,3.1-5.9,7.8-3.6c6.1,3.1,9.8,2.3,12.2-2.2
		c4.1,0.7,7.4,1.8,10.9,1.9c10.1,0.2,20.2-0.3,30.3,0.1c11.1,0.5,22.3,1.2,33.2,2.8c6.5,0.9,12.4,3.8,18.6,5.7
		c4,1.4,7.9,2.7,12.1,4.2c4.8-6.9,9,0,14.1,0.5c4-4.7,8.7-5,12.5-1.5c4.4-0.8,7.7-1.4,11-2c3.9,5.3,7.1-1.8,10.5-0.5
		c1.1,2.2,2.1,4.2,3.2,6.2c0.5-0.1,0.9-0.2,1.4-0.3c0.5-1.8,1-3.6,1.5-5.4c4,1.2,7.9,2.3,12,3.5c4-4.8,4.3-4.8,13.3,0.4
		c5.9-5.2,6.7-5.3,14-0.9c4-4.4,8.3-3.9,13.2,0.5c0.3-1.8,0.5-2.7,0.7-3.6c13.3,0,26.5,0,39.8,0c0.2,0.9,0.5,1.8,0.7,2.9
		c6.4-3.8,20.7-3.6,27.5,0.3c5-4.4,9.9-4.8,13.5,1.2c6.4-5.9,8.5-5.9,13.3,0c2.8-3.9,6.3-6.4,11.7-2.1c4.7-3.2,9.2-3.1,13,0.8
		c5.9-4.4,7.4-4.2,14.7,1.1c7.3-5.7,8.7-5.8,13.4-0.3c5.4-6.3,9.7-4.6,13.5,0.9c-1.2,0.5-2.3,1.2-3.6,1.3c-9,0.6-17.9,1-26.9,1.5
		c-0.3,0.5-0.6,1.1-0.9,1.6c1.7,0.4,3.3,1.1,5.1,1.2c3.6,0.2,7.2,0.1,13.1,0.1c4.3-3.5,5.6-3.5,11.9,2c6.3-5,33.6-5.4,39.4-0.5
		c5.7-4.7,6.2-4.7,11.8-0.8c5.3-3.9,8.5-3.9,15.9,0.2c3.1-6.2,7.9-4.9,13.5-0.7c3.8-6.9,8.1-1.8,12.9-1c-1.5-1.7-3.6-3.5-5.6-3.5
		c-16.2,0.1-32.4,0.9-48.5,0.7c-12.2-0.1-24.4-1.3-36.6-2c0.9-1.9,1.9-3.9,2.9-5.9c0.4,0-1.2,0-2.7,0c-0.9-4.5,1.6-6.4,8.2-6
		c3.4,0.2,6.9-0.8,10.5-1c10.8-0.7,21.7-1.2,32.5-1.8c0-0.3,0.1-0.6,0.1-0.8c-2.3-0.4-4.6-0.7-6.9-1.1c13.5-1.1,26.9-2.1,40.4-3.2
		c0.2,1.7,0.4,3.5,0.5,3.8c6-0.2,10.4-0.3,15.5-0.5c2.9-8.4,6.7,0.8,10.3,0.7c7.6-3.9,20.5-4.6,26-1.3c1.4-6.3,6.2-4,10.9-1.9
		c1.3-1.6,2.3-2.9,3.9-5c-5.7,0.4-10.3,1-14.9,1.1c-10.6,0.2-21.2,0.1-31.7,0.1c32.8-4.2,65.7-8.4,98.5-12.5
		c10.6-1.3,21.3-2.5,31.9-3.7c-4.8,4.9-8.5,10.9-14.9,14.5c-6.7,3.8-10.5,8.6-15.5,13c-3.8,3.4-8.5,6.3-12.7,9.4
		c-28.4,0-56.8,0-87,0c4.8,2.7,7.8,4.3,10.8,6c5.3-4.9,7.5-5,13,0.5c3.6-6.7,8.6-4.6,13.7-0.7c4.9-4.2,9.9-5.1,14.7-0.5
		c6.8-4.1,8.9-4,12.7,0.5c4.3-7.2,8.9-1.7,12.4-0.3c3.2-1.3,5.6-2.2,8.1-3.2c0,0.8,0.1,1.6,0.1,2.4c0,0.8,0,1.6,0,2.3
		c-12.5,4.5-16.4,14.7-26.5,20.9c-3.4,2-5.7,5-8.5,7.5c-32.2,0-64.4,0-96.5,0.1c-3.2,0-6.3,0.7-9.5,1c-1,0.1-2.1,0.2-3.1,0.4
		c-1.2-0.1-2.5-0.2-3.7-0.4c-2.7,0-5.4,0-8.2,0c-1.2,0-2.3,0-3.5,0c-9.3-0.3-18.6-0.8-27.8-1c-4.5-0.1-9,0.6-13.5,1
		c-2.8,0-5.6,0-8.4,0c-2.2,0-4.4,0-6.5,0c-1.1,0-2.2,0-3.4,0c-7.1-0.2-14.2-0.4-21.4-0.5c0,0-0.1,0.4-0.2,0.5c-1.7,0-3.4,0-5.1,0
		c-0.5,0-1,0-1.5,0c-1.1,0.1-2.3,0.3-3.4,0.4c-2.8-0.1-5.6-0.3-8.3-0.4c-2.9-0.4-5.8-1-8.7-1c-38-0.1-76.1,0-114.1,0
		c-11.2-0.2-22.5-0.7-33.7-0.6c-9.2,0.1-18.4,1-27.6,1.6c-2.3,0-4.5,0-6.8,0c-8.2,0-16.5,0-24.7,0c-1.2,0-2.3,0-3.5,0
		c-2.7,0-5.4,0-8.1,0c-3.3,0.4-6.7,0.8-10,1.1c-1.1-0.4-2.3-0.7-3.4-1.1c-3.2-0.4-6.3-1-9.5-1c-43.3-0.1-86.6,0-129.8,0
		C198.5,315.9,198,315.9,197.5,315.9z M295.3,297c3.3,1.1,6.7,2.3,10.2,3.5c4.6-4.8,4.6-4.8,14.6,1.3c4-5.5,8.9-4.6,13.8-0.4
		c4.5-5.9,8.2-2.7,11.5,0.2c3.3-1.6,6.3-3,9.2-4.3c-17.1-1.4-34.3-1.4-51.4-1.3C300.5,295.9,297.9,296.6,295.3,297
		c-1.6,0.6-3.2,1.2-4.7,1.8c0.7,0.5,1.4,1,2.1,1.6C293.5,299.2,294.4,298.1,295.3,297z M639.3,312.3c7.2-4,19.8-4,25.7,0.1
		c4.3-6.3,9.3-3.1,14.1,0c4.9-3.4,9.8-5.8,14.8,0.4c4.7-6.9,8.9-2.6,13.5-0.1c0.9-2.2,1.6-3.7,2.7-6.2c-29.8,0-58.5,0-87.3,0
		c-10.5,0-20.9-0.2-31.4,0.1c-6.5,0.2-7.6,1.7-4.1,5.7c3.6-5.6,7.8-3.6,11.7-0.3c5.3-5.2,9.8-3.8,14.1,0.7c5.3-4.7,10.4-5.9,14.5,1
		C631.1,307.2,635.2,308,639.3,312.3z M795.3,295.3c-2.6-3.7-16.9-4.2-40.6-2.6c-14.8,1-29.9-0.6-44.9-0.3
		c-14.4,0.2-28.8,1.3-43.9,2c3.5,1.7,6.4,3.1,9.7,4.6c3.7-3.5,7.8-5.1,11.7,0.3c5.2-5.7,9.9-3.3,13.3-0.9c4.5-1.3,8-3.2,11.6-3.2
		c5.7-0.1,12.4,2.5,16.8,1c6.6-2.2,9.2-0.4,11.8,2.6c2.5-1.5,4.6-3.8,6.6-3.7c2.2,0.1,4.3,2.3,5.6,3.1c2.9-1.2,5.6-3.3,7.9-3.1
		c2.7,0.2,5.2,2.4,7.9,3.7c2.8-4.3,6.1-5,12.4-2.6C784.7,297.4,790.3,295.7,795.3,295.3z M298.4,290.3c4.3-7.6,8.5,0.6,13.2,1.9
		c4.3-4.6,8.8-5,13.7-0.5c5.9-6.2,9.2-2.1,12.7,2.7c2.3-8.5,7.7-4.1,12.5-2.7c4.4-6,8.2-1.3,12.5,0.7c5.2-6.9,9.5-2.5,13.9,0.9
		c4.9-5,9.8-4.1,13.8-1c3.4-0.8,7.5-2.7,8.7-2c5.5,3.1,7.6-0.5,11-2.1c-15.4-0.6-30.8-0.6-46.1-0.7c-13,0-26,0-39-0.2
		c-12.1-0.2-24.2-0.7-36.3-0.7c-2.3,0-4.6,1.6-7.3,2.7C287.8,289.6,292.3,289.9,298.4,290.3z M420.2,302.7c3.6-3.8,7.6-7.1,13-1.3
		c4.8-3.6,9.1-3.1,13.2,1.6c3.1-8.9,7.4-2.4,11.6-1.1c4.7-6.3,9.7-3,14.2-0.1c8.2-6,8.2-6,12.5-2.5c2-1.7,4.2-3.5,6.3-5.4
		c1,1,2,2,3,3.1c-39.4,0-78.8,0-120,0c2.7,2.8,4,4.1,5.7,5.9c4-5.1,8.1-4.1,11.9-0.4c5.4-5.7,10.4-2.8,15.1,0
		C413.1,296.7,415.2,296.7,420.2,302.7z M592.9,287.6c-3.7-0.9-6.6-2.4-9.5-2.4c-24.7,0.2-49.4,0.8-74.2,1c-16.4,0.2-32.7,0-49.1,0
		c0,0.7,0,1.4,0,2c8.1,0.7,16.2,1.5,25.5,2.3c4.2-4.5,5.4-4.6,13.5,1.1c3.6-3.5,7.5-6.8,11.8-2.9c8.8-0.3,16.2-0.6,23.7-0.7
		c1,0,2,1.6,3.2,2.5c5.1-5.2,8.7-3.8,11.4,1.2c6.9-5.7,7.2-5.7,16.2-0.2c2.5-4.7,6.1-4.8,12.2-2.5
		C580.8,290.3,586.4,288.3,592.9,287.6z M792.1,273c0.4-0.9,0.8-1.8,1.2-2.6c-2.5-0.6-5.1-2-7.6-1.8c-29,1.8-57.9,3.8-87.6,5.7
		c3.4,2,5.8,3.4,8.4,5c4.3-2.9,8.8-6.3,13.9,0c2.8-6.5,7.3-2.2,11-1.4c4.2-5.5,4.2-5.5,12-1.7c4.3-3.3,17.4-3.9,24.3-0.7
		c2.9-3.9,6.5-7.1,12.4-0.7C783.2,270.1,787.3,270,792.1,273z M586.3,297.1c-0.3-0.5-0.5-1-0.8-1.5c-21.8,0-43.7,0-65.2,0
		c3.6,2,6.7,3.6,10.2,5.5c2.9-4.7,7-5.2,11.6-0.4c5.1-5.7,9.9-4.5,14.7,0.2c4.3-5.4,8.9-4.9,11.9-2.1
		C575.9,298.1,581.1,297.6,586.3,297.1z M223.7,298.6c0.8,0.6,1.5,1.2,2.3,1.8c4.3-3.7,8.7-5.2,13-0.1c5.2-6.1,9.9-2.5,14.6,0.5
		c5.7-7.3,9.9-3,14.3,1.1c3.2-5.2,6.9-7.2,11.2-1.3c2.8-1.7,5.1-3.1,7.1-4.3c-7.5-0.5-15.4-1.4-23.3-1.4c-11.4,0-22.8,0.5-34.2,1.1
		C226.9,296,225.3,297.6,223.7,298.6z M636.3,299.4c2-1.9,3.5-3.3,5.2-4.9c-17,0-33.3,0-51.7,0c2.8,2.8,4.2,4.3,5.9,6
		c4.5-5.5,8.5-3.7,12.4,0.2c4.7-7,9.4-5,13.7-0.5C629.8,294.7,630.2,294.7,636.3,299.4z M375,310.7c0.6-0.5,1.3-1,1.9-1.5
		c-1.6-0.9-3.1-2.6-4.8-2.6c-15-0.6-30.1-1-45.1-1.3c-4.1-0.1-8.2,0.5-13.3,0.8c3.5,1.9,5.8,3.1,8.5,4.6c4.7-5.5,9.4-2.7,14,0.6
		c4.4-5.5,9.1-4.5,13.9-0.5c4.4-6,8.5-2,13.2,0.2C366.7,306.3,370.7,306.5,375,310.7z M325.9,280.9c-2-1.4-2.9-2.4-3.9-2.5
		c-14.9-1.4-29.8-2.7-44.7-3.8c-1.5-0.1-3.3,1.7-4.3,2.3c5.4,1.2,9.5,2.1,12.3,2.7c5,0,9.2,0,13.5,0
		C307.1,276.9,315.5,281,325.9,280.9z M803.2,261.3c0.7,1,1.3,2,2,2.9c4.8-7.9,9.5-5.3,13.9-1.7c6-7,7-5.4,13.4-1.2
		c2.6-6.4,8.2-1.6,13.5-2.6c-1.5-1.6-3.6-3.3-5.6-3.2c-11.2,0.5-22.3,1.4-33.4,2.4C805.6,258.1,804.5,260.1,803.2,261.3z
		 M416.5,311.3c4.5-6.9,8.9-2.3,13.2,0c1.5-5.9-1.5-6.6-18.8-4.9C412.6,307.8,414.1,309.2,416.5,311.3z M647.6,298.8
		c0.8-0.2,1.6-0.4,2.4-0.5c-0.6-1.5-1.2-2.9-1.8-4.4c-0.9,0.2-1.7,0.4-2.6,0.6C646.3,295.9,647,297.4,647.6,298.8z M500.7,297.8
		c-0.7-0.1-1.4-0.2-2.1-0.2c-0.1,1-0.2,2-0.4,3.1c0.5,0.1,0.9,0.1,1.4,0.2C500,299.8,500.3,298.8,500.7,297.8z"/>
	<path class="st3" d="M838.2,285.1c0-0.8-0.1-1.6-0.1-2.4c0.6-0.8,1.1-1.5,1.7-2.3c4.3-3.1,8.9-6,12.7-9.4c5-4.4,8.8-9.3,15.5-13
		c6.3-3.6,10-9.5,14.9-14.5c25.3-3.6,50.6-7.1,75.9-10.7c14-1.9,28-3.8,42-5.7c2.2,0.3,4.4,0.6,6.6,0.9c0,0.8-0.1,1.6-0.1,2.4
		c-1.1,1.9-3.1,3.9-3.1,5.8c-0.3,16.3-0.1,32.5-0.1,48.8c-22.3,0.5-44.5-4.8-67-1.6c-0.1,0.5-0.2,1.1-0.3,1.6
		c11,1.2,22.1,2.5,33.9,3.8c4.6-6.1,7.9,0.8,12.5,2c4-4.7,8.3-3.9,11.9-0.3c3.4-1.2,6.2-2.1,9-3.1c0,5.7,0.2,11.4-0.1,17.1
		c-0.2,4.6-1.1,9.2-1.6,13.8c-7.9-0.8-15.9-1.5-23.8-2.4c-13.4-1.5-26.7-3.3-40.1-4.6c-1.8-0.2-4,1.6-5.5,2.2
		c4.5,1.1,7.7,1.9,11,2.7c1.7,0.4,4.1,1.6,4.9,1.2c6-3.5,8.6-0.2,11.1,2.8c10.5-3.1,24.9-0.5,27.6,3.8c5.4-0.4,10.1-0.7,14.8-1.1
		c0.6,1.8,1.5,3.7,1.6,5.5c0.2,6.8-0.2,13.6,0.2,20.4c0.1,2.1,2,4.1,3.1,6.1c0,1.9,0,3.9,0,5.8c-15.7-3.6-31.3-7.3-47-10.7
		c-14.1-3.1-28.3-6.1-42.5-9.1c-14.9-3.6-29.5-7.7-44.6-10.7c-22.7-4.6-45.6-8.6-68.5-12.9c-0.5-0.2-1-0.3-1.6-0.5
		c0-0.4,0-0.8-0.1-1.1c2.8-2.5,5.1-5.5,8.5-7.5c10.2-6.1,14-16.3,26.5-20.9c10.3,0.6,20.7,1.2,31,1.9c-1.1,1.9-2.5,2.8-3.9,2.8
		c-6.2,0-12.5-0.2-18.7-0.5c-4.9-0.3-6.9,1-6.5,3.1c6,0.6,11.5,2.5,14.7,1.3c6.8-2.7,10-0.7,13.2,3.2c5.6-2,11-4.2,13.6,2.2
		c1.5-1.2,2.2-2.3,3.3-2.7c1.7-0.6,4.1-1.3,5.6-0.9c1.2,0.3,2.4,2.6,1.9,3.5c-0.6,1.1-3.2,2.6-4.6,2.5c-11.7-1-23.3-2.4-35.4-3.7
		c-2.5,4.9,4.2,3.4,7,4.4c3.3,1.2,6.9,2.2,10.3,3.2c-8.8,2.5-17.7-2.6-25.9,0.9c0,0.6-0.1,1.2-0.1,1.8c12.3,1.6,24.5,3.2,36.8,4.8
		c0.2-0.4,0.4-0.9,0.6-1.3c1.1,1.3,2.2,2.5,3.8,4.3c2.9-1.1,5.4-2.2,10-4c-6.5-1.6-10.6-2.6-15-3.7c5.5-5.5,18.1-4,25.9,3.1
		c1.2-2,3.2-3.7,2.9-5.1c-0.2-0.9-3.9-1.4-5.8-2.2c-2.2-0.9-4.4-2-6.5-3c1.9-1.4,3.9-2.8,5.8-4.3c0.5-0.4,1-0.8,2-1.6
		c-9.6-1.3-18.6-2.6-27.5-3.8c0-0.7,0.1-1.5,0.1-2.2c7.5-1.3,15.2-0.1,22.9,1.1c0.5-0.5,1.1-1,1.6-1.5c-2.8-1.7-5.7-3.5-10.6-6.5
		c5.5,0.5,9.1,0.9,12.8,1.3c2.4-0.2,5.3-0.8,8.2-0.8c2,0,4,1,6.1,1.3c0.2,0,1.5-2.2,1.2-2.4c-1.7-1-3.7-2.4-5.8-2.5
		c-13.1-1-26.3-1.9-39.4-2.3c-5.4-0.2-10.9,0.7-16.3,1c0,0.6,0,1.1,0.1,1.7c9.9,2.4,21.8-1,32.8,5.4
		C871.3,286.6,854.7,285.9,838.2,285.1z M964.2,325.5c0.9,1.9,1.8,3.7,3,6.3C972.3,326.8,970.6,325.3,964.2,325.5
		c-10.6-5.7-23.3-5.9-35.6-7c-1.7-0.2-3.7,1.4-5.6,2.2c1.8,0.8,3.5,2.1,5.5,2.3c6.8,0.7,14.9-0.5,20.1,1.8
		C954.5,327.4,958.8,327,964.2,325.5z M824.6,313.7c0.3,0.7,0.5,1.3,0.8,2c7.6,0.6,15.1,1.2,24.2,1.9c1.3,1.1-0.2,9.4,8.9,2.4
		c0.6-0.5,4.4,0.7,6.2,1.7c1.5,0.8,2.3,2.3,4,4.1c2.5-2.2,4.4-3.9,7.9-7.1c-11.4-1.9-20.7-4.2-30.2-4.9c-7.3-0.5-11-1.2-4.8-7.7
		c-1.1-0.2-2.2-0.3-3.3-0.5C833.7,308.3,829.1,311,824.6,313.7z M929.5,251.9c-10.7,0-21.4-0.1-32,0.1c-5.7,0.1-11.5,0.6-17.1,1.4
		c-1.3,0.2-2.1,2.1-3.1,3.2c1.8,0.5,3.6,1.4,5.4,1.4c4.2-0.1,8.4-0.6,12.7-0.8C906.9,256.3,919.3,258.7,929.5,251.9z M920.3,291.5
		c0,0.7,0,1.3,0,2c14.5,1,29,2,42.9,2.9c4.2,0,8,0,12.2,0c1.4-2.9-0.7-4-5.8-4.2c-8-0.4-16-1.9-24-2.1
		C937.2,289.9,928.3,288.4,920.3,291.5z M988,261.1c1.9-3.7-0.5-4.5-4.9-4.5c-13.2,0-26.3-0.1-39.5,0.1c-3.7,0.1-7.3,1.4-11,2.1
		c0.2,0.7,0.5,1.4,0.7,2c9.1-0.5,18.6-4.1,27.3,1.2c4.2-3.9,8.8-4.7,13.8,0.2C977.8,255.5,983.1,261.2,988,261.1z M950.1,302
		c0,0.6-0.1,1.1-0.1,1.7c5.1,1.7,10.1,3.4,15.3,4.9c1,0.3,2.8-0.1,3.9-0.6c5.7-2.9,9.5-1.6,11,1.9c3.8,0.1,6.5,0.5,9.1,0.2
		c2.1-0.2,4.1-1.1,6.1-1.7c-0.3-0.5-0.6-1.1-0.9-1.6C979.4,306.5,965.2,301.5,950.1,302z M963,280.1c1.8-2.3,3.2-4,4.8-5.9
		c-14-2.2-40.8-1.3-45.2,1.7c5.1,1.7,12.6-3.6,14.8,4c5.1-7,9.2-3,13.4-0.9C954.4,278.2,958.3,272.7,963,280.1z M991.2,250.1
		c0.5-0.4,0.9-0.7,1.4-1.1c-2.8-0.6-5.5-1.8-8.4-1.9c-23.3-0.7-31.4,0.3-34.6,4.3c5.5-0.1,11.8-4.5,14.3,0
		C973.8,251,982.5,250.5,991.2,250.1z M981.7,269.8c0.4,0.7,0.7,1.3,1.1,2c1.6-1,3.2-1.9,4.6-2.8c1.5,1,2.8,1.9,4.4,3
		c1.8-2,3.2-3.5,5.9-6.3c-12.7,2.1-23.6-2.6-34.6,1.7c2.6,1.4,5.3,2.1,8.1,2.4C974.8,270,978.2,269.8,981.7,269.8z M965.3,336
		c-6.9-1.5-13.1-3.1-19.3-4.2c-1.8-0.3-4.2,0.3-5.9,1c-0.6,0.2-0.2,3,0.3,3.1c1.8,0.3,3.8-0.1,5.6,0c2.1,0.1,5.1,0.1,6.1,1
		C957.5,341.6,958.3,341.7,965.3,336z M952.7,269.1c0.2,0.4,0.4,0.8,0.6,1.2c2.1-0.8,4.3-1.7,6.4-2.5c-0.9-0.9-1.8-2.5-2.7-2.5
		c-5,0.2-10.1,0.6-15,1.3c-0.8,0.1-1.2,1.8-1.8,2.7c1.4,0.2,2.8,0.8,4.1,0.7C947.1,269.8,949.9,269.4,952.7,269.1z M905.1,247.3
		c5.7,0,11.4,0,17,0C916.5,243.3,910.7,245.3,905.1,247.3z M899.8,249.1c0-0.5,0-1,0.1-1.5c-3.8,0-7.6,0-11.4,0c0,0.1,0,0.3,0,0.4
		C892.2,248.4,896,248.8,899.8,249.1z"/>
	<path class="st20" d="M263.7,264.9c1.1-0.7,2.3-1.4,3.4-2.1c13.2,0.9,26.4,1.7,39.6,2.6c23.5,1.5,46.9,3.9,70.4,4.2
		c72.2,0.9,144.5,1.3,216.8,1.2c25.2,0,50.5-2.2,75.7-3.4c7.3-0.4,14.6-0.9,21.9-1.4c2.3,0.4,4.6,0.7,6.9,1.1c0,0.3-0.1,0.6-0.1,0.8
		c-10.8,0.6-21.7,1.2-32.5,1.8c-3.5,0.2-7,1.2-10.5,1c-6.6-0.4-9.1,1.5-8.2,6c-7.2-0.4-14.4-0.8-21.6-1.2c-2.8,0-5.6,0-8.4,0.1
		c-10,0.4-20,1-30,1c-7.7,0-15.4-0.6-23.1-1c-2.3-0.4-4.5-0.8-6.8-1.2c-1,0-2,0-2.9,0c-6.8,0-13.6-0.2-20.3,0
		c-2.2,0.1-4.3,1.5-6.4,2.2c-1.1,0.4-2.3,0.8-3.4,1.2c-13.3,0-26.5,0-39.8,0c-2.8-0.4-5.6-1.1-8.5-1.1c-7.1-0.2-14.3,0-21.4,0
		c-2.7,0-5.5-0.1-8.2-0.1c-5,0.4-10,0.9-15,1.3c-0.5,1.8-1,3.6-1.5,5.4c-0.5,0.1-0.9,0.2-1.4,0.3c-1-2-2.1-4-3.2-6.2
		c-3.5-1.3-6.6,5.8-10.5,0.5c-2.6-0.4-5.1-1.1-7.7-1.1c-14-0.1-28-0.1-42.1,0c-6.2-2-12.1-4.8-18.6-5.7c-10.9-1.6-22.1-2.3-33.2-2.8
		c-10.1-0.4-20.2,0.1-30.3-0.1c-3.4-0.1-6.8-1.2-10.9-1.9c-2.4,4.5-6.1,5.3-12.2,2.2c-4.7-2.4-6.7,0.6-7.8,3.6
		c-2.2-0.4-4.4-0.8-6.6-1.2c0-0.8,0-1.6,0-2.4C251.6,267.3,257.6,266.1,263.7,264.9z M395.5,273.4c-0.1,0.2-0.2,0.4-0.3,0.6
		c2.4,0,4.9,0,7.3,0c0-0.2-0.1-0.4-0.1-0.6C400.2,273.4,397.9,273.4,395.5,273.4z M379,274.6c1.3,0.6,1.9,1,2.1,0.9
		c0.6-0.2,1.1-0.6,1.7-0.9C381.8,274.6,380.9,274.6,379,274.6z M609.6,274.3c0.4-0.1,0.9-0.3,1.3-0.4c-0.2-0.1-0.3-0.4-0.5-0.4
		c-0.5,0-0.9,0.1-1.4,0.1C609.2,273.8,609.4,274,609.6,274.3z"/>
	<path class="st13" d="M811.5,236.3c-21.7,2.8-43.3,5.5-65,8.4c-4.8,0.6-9.3,2.1-14.1,2.5c-24.2,2.1-48.4,3.8-72.6,5.8
		c-17.7,1.5-35.4,3.7-53.1,4.6c-20.8,1-41.8,1-62.7,1.4c-64.4,1.2-128.6-0.2-192.7-4.7c-8.7-0.6-17.4-0.9-26.2-1.3
		c1.2-1.6,2.3-3.1,3.5-4.7c1.6,0,3.2,0,4.8-0.1c4.9,3.9,22.5,5.2,31.6,2.5c5,0.1,9.9,0.2,14.9,0.5c30.5,1.4,61,2.7,91.5,4.1
		c26.5,0,53,0,79.5,0c8-0.3,16-0.5,24-0.8c8.6-0.2,17.2-0.3,25.8-0.5c1.3-0.2,2.5-0.4,3.8-0.5c11.5-0.6,23-1.1,34.5-1.7
		c5.2-0.3,10.4-0.5,15.6-1c38.2-3.8,76.4-7.5,114.5-11.5c17.3-1.8,34.5-4.3,51.7-6.5c0.8-0.3,1.6-0.6,2.4-0.9c1.7-0.4,3.3-0.7,5-1.1
		c0.5,1.1,1.1,2.1,1.6,3.2c-4.2,0.5-8.4,1-12.6,1.5C815.3,235.7,813.4,236,811.5,236.3z"/>
	<path class="st0" d="M328.7,248.2c-1.2,1.6-2.3,3.1-3.5,4.7c-1.7,0-3.3-0.1-5-0.1c0.3-1.3,0.6-2.6,1.3-5.4c-5.2,1.3-9,2.2-12.8,3.1
		c-19.9-1.9-39.9-3.6-59.8-5.8c-29.4-3.3-58.7-7-88-10.6c-1.6-0.2-3.1-0.7-4.7-1.1c-0.5-2.1-0.5-4.3-1.5-6.2
		c-1.8-3.4,1.2-3.5,4.3-3.9c1.1,0.2,2.2,0.5,3.3,0.7c47.7,7.1,95.5,14.1,143.2,21.2C313.3,245.9,321,247.1,328.7,248.2z"/>
	<path class="st9" d="M19.6,214.8c1.7-7.4,3.4-14.8,5-22.3c7.1-3,14.3-5.7,21.2-8.9c23.6-11.1,47-22.3,70.4-33.6
		c4.1-2,7.7-4.3,11.6-6.5c2.3,0.9,4.6,1.7,6.8,2.6c-3.4,1.6-6.9,3.1-10.2,4.7c-24.1,11.8-48.3,23.4-72.2,35.4
		c-5.3,2.7-9.5,6.4-14.2,9.7c-1.7,1-4.5,1.7-4.9,2.9c-2.1,5.2-3.5,10.5-5.2,15.8C25.1,214.7,22.4,214.7,19.6,214.8z"/>
	<path class="st0" d="M27.9,214.7c1.7-5.3,3.1-10.6,5.2-15.8c0.5-1.2,3.2-2,4.9-2.9c15,3.7,30,7.4,45,11.1c0.5,5.4,1,10.8,1.5,16.1
		c-3.9-0.6-7.8-1.3-11.7-1.9c-4.1-4.4-8.4-8.3-17.2-7.5c-4.8,0.5-10.8,1.1-14.4-0.5c-5.6-2.5-8.3-1.6-11.4,1.7
		C29.1,214.8,28.5,214.8,27.9,214.7z"/>
	<path class="st9" d="M977.1,202c0.9,2.9,1.7,5.8,2.6,8.7c-2.8,0.5-5.7,0.9-8.5,1.4c-1.1-3.2-2.3-6.3-3.4-9.5
		c-2.1-2.6-3.6-5.6-6.4-7.7c-2.9-2.2-7.1-3.7-10.7-5.4c-28.5-14.1-57-28.2-85.5-42.2c2-0.7,4-1.4,6-2.1c31.1,14.9,62,29.9,93.3,44.6
		C971.2,192.7,976.7,195.8,977.1,202z"/>
	<path class="st0" d="M147.5,232.3c-18.3-2.6-36.7-5.3-55-7.9c0-5,0-10.1,0.1-15.1c18.1,4,36.1,8,54.2,11.9
		C147,224.9,147.3,228.6,147.5,232.3z"/>
	<path class="st9" d="M92.6,209.2c0,5,0,10.1-0.1,15.1c-2.7-0.4-5.4-0.8-8-1.2c-0.5-5.4-1-10.8-1.5-16.1c2.1-0.5,4.3-0.7,6.2-1.4
		c29.9-12.3,59.7-24.6,89.4-37.1c2.4-1,3.7-3.4,5.6-5.2c3.7,1.3,7.5,2.6,11.2,3.9c-2.7,0.4-5.7,0.3-8,1.2
		C155.7,182,124.1,195.6,92.6,209.2z"/>
	<path class="st9" d="M806.4,167.4c1.5-0.5,3-0.9,4.5-1.4c4.5,1.5,9.2,2.7,13.4,4.5c28.8,12.1,57.5,24.3,86.1,36.7
		c2.8,1.2,3.9,4.5,5.8,6.8c0,2.3-0.1,4.6-0.1,6.9c-2.7,0.4-5.5,0.9-8.2,1.3c0.4-1.9,0.8-3.8,1.2-5.7c1.5-4.1-1.3-6.6-6.1-8.6
		C870.8,194.5,838.6,181,806.4,167.4z"/>
	<path class="st0" d="M916.1,220.9c0-2.3,0.1-4.6,0.1-6.9c17.2-3.9,34.4-7.7,51.5-11.6c1.1,3.2,2.3,6.3,3.4,9.5
		C952.8,215,934.5,217.9,916.1,220.9z"/>
	<path class="st9" d="M147.5,232.3c-0.3-3.7-0.5-7.4-0.8-11.1c29.5-10.3,59.1-20.6,88.4-31.1c4-1.4,6.9-4.4,10.3-6.7
		c1.8,1,3.6,2,5.3,3c-5.2,2.2-10.2,4.7-15.6,6.7c-19.2,7-38.5,13.7-57.6,20.8c-6.6,2.5-12.5,6-18.7,9c-3.1,0.3-6.1,0.5-4.3,3.9
		c1,1.9,1,4.2,1.5,6.2C153.3,232.8,150.4,232.6,147.5,232.3z"/>
	<path class="st9" d="M852.7,229.5c-2.7,0.7-5.4,1.5-8.2,2.2c0-1.2,0.1-2.4,0.1-3.6c-1.7-2.2-2.6-5.4-5.2-6.4
		c-24.9-9.3-50.2-18.2-75.3-27.2c-1.7-0.6-3.2-1.5-4.7-2.3c3.1-0.8,5.6-0.8,7.7-0.1c27.2,9.6,54.4,19.3,81.4,29.1
		c2.2,0.8,3.2,3.2,4.8,4.9C853.1,227.3,852.9,228.4,852.7,229.5z"/>
	<path class="st0" d="M852.7,229.5c0.2-1.1,0.5-2.2,0.7-3.3c8.5-1.5,17-3.1,25.6-4.6c10.1-1.7,20.1-3.4,30.2-5
		c-0.4,1.9-0.8,3.8-1.2,5.7c-17.2,2.7-34.5,5.5-51.7,8.1C855.1,230.5,853.8,229.8,852.7,229.5z"/>
	<path class="st21" d="M752.4,259.8c10.6,0,21.2,0.1,31.7-0.1c4.6-0.1,9.2-0.6,14.9-1.1c-1.6,2.1-2.7,3.4-3.9,5
		c-4.7-2.1-9.5-4.4-10.9,1.9c-5.5-3.3-18.4-2.5-26,1.3c-3.6,0.1-7.4-9.1-10.3-0.7c-5,0.2-9.5,0.3-15.5,0.5c0-0.4-0.3-2.1-0.5-3.8
		C738.7,261.8,745.6,260.8,752.4,259.8z"/>
	<path class="st13" d="M29.8,214.9c3-3.3,5.8-4.1,11.4-1.7c3.6,1.6,9.6,1,14.4,0.5c8.9-0.8,13.2,3.1,17.2,7.5
		C58.4,219.1,44.1,217,29.8,214.9z M55.9,216c-1.1-0.3-1.8-0.7-2.4-0.6c-0.5,0.1-0.9,0.7-1.3,1.1c0.6,0.2,1.3,0.7,1.8,0.6
		C54.6,217.1,55.1,216.5,55.9,216z"/>
	<path class="st0" d="M844.6,228.1c0,1.2-0.1,2.4-0.1,3.6c-4.9,0.7-9.9,1.5-14.8,2.2c-0.5-1.1-1.1-2.1-1.6-3.2
		c3.4-0.8,6.7-1.5,10.1-2.3C840.3,228.3,842.5,228.2,844.6,228.1z"/>
	<path class="st13" d="M308.6,250.5c3.8-0.9,7.6-1.9,12.8-3.1c-0.7,2.8-1,4.1-1.3,5.4C316.3,252,312.5,251.2,308.6,250.5z"/>
	<path class="st0" d="M811.5,236.3c1.9-0.3,3.7-0.6,5.6-0.9C815.3,235.7,813.4,236,811.5,236.3z"/>
	<path class="st4" d="M199.1,334.9c-31.9,2.1-61.4,10.1-90.5,19c-2.5,0.8-5.1,1.4-7.7,2.1c-1-4.8-2.8-9.7-2.6-14.5
		c0-1.5,5.2-2.9,7.9-4.4c0.8-0.4,1-1.3,1.5-2l0.5-0.3l0.6,0.1c0.7-0.3,1.5-0.6,2.2-0.9c2.9-0.8,5.8-1.5,8.8-2.3c0,0-0.1,0.1-0.1,0.1
		c20.7-3.6,41.3-7.2,62-11c1.8-0.3,3.4-1.5,5-2.3l0.4,0.1c0,0,0.3-0.2,0.3-0.2c3.3-0.3,6.7-0.7,10-1
		C198,323.2,198.5,329,199.1,334.9z"/>
	<path class="st22" d="M186.7,318.5c-1.7,0.8-3.2,1.9-5,2.3c-20.6,3.7-41.3,7.3-62,11c2.1-1.7,4.2-3.4,6.3-5.1
		c6.9-0.4,13.8-0.9,21.6-1.4c-6.4-6.8-10.5-3.9-13.8,0.1c-3.5-1.1-6.5-2.1-9.5-3c-0.4,0.4-0.8,0.8-1.2,1.2c1,1,1.9,2,2.9,3
		c-1.6,0.3-3.4,1.2-4.7,0.8c-2.3-0.6-4.2-1.9-6.3-2.9c1.6-1.2,2.9-3.2,4.7-3.5c14.6-2.7,29.2-5.1,43.9-7.5
		c6.6-1.1,12.8-1.4,17.1,3.7C181.5,318.1,184.6,318.1,186.7,318.5z"/>
	<path class="st22" d="M17.1,295.2c13.6-1.3,26.7-2.5,40.2-3.8c-0.3-3.6-0.8-4.8-7.7-4.4c-7.2,0.5-14.4,4.8-22.3,1
		c-1.2-0.6-5,1.5-7.8,2.4c-7.1-3.5-7.1-3.5-12.2,1.3c-1.6-4.1-1.4-6.5,5.8-6.6c14.5-0.1,28.9-0.8,43.4-1c1.9,0,5.4,0.6,5.6,1.4
		c1.8,6.4,8.4,5.7,14.9,5.7c6.4,0,7,2,3.3,5.8c-2.2-1-4.1-2-4.2-2c-15.7,1.2-29.8,2.3-45.8,3.6c-0.1,0.1-1.6,1.5-3.4,3.3
		C23.7,299.5,20.7,297.6,17.1,295.2z"/>
	<path class="st22" d="M140.8,285c-9.9,0-17,0-24.1,0c0,0.6-0.1,1.3-0.1,1.9c4.1,0.4,8.3,1.2,12.4,1c11.4-0.4,16.8,1.8,21,8.7
		c-5.1,0.8-11.8,3.5-15.4,2c-7.5-2.9-13,1.4-19.5,1c-2.6-0.2-5.4,2.3-8.2,3.5c-3.5-3.9-2.1-5.5,4.7-6.3c9.2-1.1,18.3-2.7,27.5-4
		c-0.2-0.8-0.3-1.6-0.5-2.4c-8.1,0.7-16.3,1.3-24.5,2c-4.3-7.9-4.3-7.9-16.8-5.3c-2.8-4.7,0.5-6.6,6.5-6.7c10.7-0.1,21.4,0,32.1,0.4
		C137.4,280.9,138.7,283.1,140.8,285z"/>
	<path class="st22" d="M33.4,247.8c9.9,0.8,19.7,1.5,30.4,2.3c-0.5,1.6-1,3.1-1.1,3.2c-11.3-0.7-21.7-1.4-33.9-2.2
		c-2.5,2.6-7,3.9-11.4-2.1c-2.1,1.9-3.7,3.4-5.7,5.3c-2.7-2.1-5.1-4.1-9.4-7.5c10.2,0,18.6,0,27,0c0-0.7,0.1-1.5,0.1-2.2
		c-8.4-1-16.7-2-25.3-3c7.7-2.9,34.3-1.6,42,2.3c-4.8,0.6-8.7,1-12.7,1.5C33.5,246.2,33.5,247,33.4,247.8z"/>
	<path class="st21" d="M162.5,283.9c22.7,0.1,45.5,0,68.2,0.4c13.1,0.2,26.2,1.3,39.6,2.1c-2.3,1.4-4.3,2.5-6.7,3.9
		c-3.9-4-8.2-4-12.2,1.1c-4.5-5-9.1-5.4-13.8-0.3c-4.5-3-8.6-8-13.9-1.1c-4.3-1.6-8.1-7-12.6-0.7c-2.5-1-4.8-1.9-7.5-2.9
		c-1.8,1.6-3.3,3.1-5.2,4.9c-4-2.4-7.7-8.6-11.9-1.1c-2.8-1.3-5.5-3.3-8.3-3.4c-1.9,0-3.9,2.8-5.8,4.3
		C164.5,292,162.7,288.5,162.5,283.9z"/>
	<path class="st22" d="M81.2,318.3c-0.3,4-2.6,5-8.7,5.6c-6.9,0.8-13.3,3.5-20.8,2c-0.7-0.1-2.3,2.2-3.5,3.4
		c-4.8-1-10.6-4.5-11.6,2.6c-5.2-0.9-10.4-1.7-17-2.8c7-1.4,12.6-2.6,18.1-3.7c7.3-1.4,14.6-2.9,22-4.1
		C66.8,320.2,74,319.3,81.2,318.3L81.2,318.3z"/>
	<path class="st22" d="M38,319.7c-9.1-2.1-17.6,1.9-26.9,5.6c-2.2-3.5-2-6,3.9-7.1c3.7-0.7,7.4-1.4,11.2-1.9c12-1.7,23.9-3.4,36-4.8
		c3.1-0.4,6.4-0.1,11-0.1c-1.7,1.9-2.7,3.6-3.3,3.5c-6.9-1-12.3,5-20,1.7C48,315.8,43.4,318.2,38,319.7z"/>
	<path class="st22" d="M29.8,275.7c4-0.5,7.9-1.3,11.9-1.5c10.3-0.5,20.7-0.9,31.1-0.7c2,0,4,2.5,6,3.8c-2.2,0.1-4.4,0.3-6.6,0.3
		c-4.5-0.1-9.1-0.5-13.6-0.4c-8.1,0.2-16.2,0.6-24.4,1c-1.6,0.1-3.1,0.5-4.7,0.7c-1.7,0.2-3.4,0.4-5.1,0.2c-0.4-0.1-1.1-2.2-0.6-2.5
		c1.5-0.9,3.5-1.5,5.3-2.2C29.4,274.9,29.6,275.3,29.8,275.7z"/>
	<path class="st22" d="M21.7,258.9c-7.5,7.9-8.6-0.4-12.5-1.7c16.5,0,32.9,0,49.5,0c-1.8,6.2-3.6,6.5-12.1,1.9
		c-2.1,1-4.3,2.1-6.9,3.3c-2.2-1.1-4.4-2.1-6.8-3.3C29.3,259.6,26.2,266.5,21.7,258.9z"/>
	<path class="st22" d="M34.4,271.4c-4.1-4-8.4-4.2-12.8,0.2c-4.4-4.2-8.8-4.2-13.1,0.3c-1.4-2.3-2.6-4.1-3.2-5.1
		c17.3,0,37.2,0,59.2,0c-2.6,1.6-3.7,2.7-4.7,2.7c-5.6-0.1-11.2-0.9-16.7-0.8C40.4,268.7,37.8,270.2,34.4,271.4z"/>
	<path class="st22" d="M110.3,271.5c-7.9-4-20.4-4.1-25.7-0.1c-0.7-0.3-1.3-0.6-2-0.9c1-1.2,1.8-3.2,3.2-3.4
		c4.7-0.9,9.7-1.6,14.5-1.6c12.6,0.1,25.2,0.6,37.8,1.6C129.4,270.4,118.6,265.6,110.3,271.5z"/>
	<path class="st22" d="M43.2,305c-2.6,1.6-5.2,3.2-7.7,4.8c-6.9-4.8-7.7-4.6-13.4,2.4c-1.5-1-2.9-2-4.3-2.9
		c-2.9,1.4-5.5,2.8-8.2,4.1c-0.3,0.2-1-0.1-3.6-0.4c1.5-2.1,2.3-5.1,4-5.4c10.5-1.9,21.3-3.3,32-4.8C42.4,303.5,42.8,304.2,43.2,305
		z"/>
	<path class="st22" d="M112.7,306.5c5.3-1.5,10.4-3.8,15.9-4.4c6.6-0.8,13.5-0.3,20.3-0.2c1.1,0,2.2,0.7,3.4,2.4
		c-5,0.5-9.9,1-14.9,1.6c-8.6-1.5-8.7-1.5-13.7,4.2C120,308.9,116.4,307.7,112.7,306.5L112.7,306.5z"/>
	<path class="st22" d="M49.4,337.4c-6,1.6-12,3.1-21.1,5.4c-6-1.3-6-1.3-9.3,4.3c-2.4-1.2-4.7-2.3-8.9-4.4c14-3,25.9-5.5,37.9-8
		C48.5,335.6,48.9,336.5,49.4,337.4z"/>
	<path class="st22" d="M86.1,253.9c2.6-0.5,5.3-1.6,7.9-1.5c6.4,0.1,12.9,0.5,19.3,1.3c1.5,0.2,2.6,2.3,4.6,4.4
		c-12.2-0.8-21.7-1.4-31.2-2C86.5,255.4,86.3,254.7,86.1,253.9z"/>
	<path class="st22" d="M112.7,306.5c0.1,8.5-6.5,3.1-11.2,2.5c-0.6,0.5-1.2,1-1.9,1.6c-1.1,0.9-2.1,2-3.4,2.6
		c-0.3,0.2-2.9-1.4-2.8-1.6c0.8-1.3,1.8-3.1,3.3-3.4C102,307.3,107.4,307,112.7,306.5C112.7,306.5,112.7,306.5,112.7,306.5z"/>
	<path class="st22" d="M47.5,307.3c-2.2-3.5-1.5-5.6,4.7-5.5c1.9,0,3.9-0.2,5.8,0c2,0.2,4,0.7,5.9,1.3c0.2,0.1-0.3,1.4-0.5,2.1
		c-1.9-0.2-3.9-0.9-5.6-0.6C54.6,305.1,51.6,306.1,47.5,307.3z"/>
	<path class="st22" d="M81.2,318.4c5.5-1.1,10.9-2.1,16.4-3.2c0.3,0.6,0.5,1.2,0.8,1.8c-3.2,1.8-6.5,3.6-9.5,5.4
		C86.2,321,83.7,319.7,81.2,318.4C81.2,318.3,81.2,318.4,81.2,318.4z"/>
	<path class="st14" d="M107.7,335.1c-0.5,0.7-0.7,1.5-1.5,2c-2.7,1.6-7.9,2.9-7.9,4.4c-0.1,4.8,1.6,9.7,2.6,14.5
		c-1.1,0.2-2.2,0.3-3.3,0.5c-0.5-3.7-0.8-7.4-1.4-11.1c-0.4-2.3-1.1-4.7-1.7-7c0.6-0.4,1.1-0.9,1.7-1.3c2.3-0.7,4.6-1.4,6.9-2
		c0.5,0.1,0.9,0,1.4-0.1C105.5,335,106.6,335,107.7,335.1z"/>
	<path class="st22" d="M164.1,292.5c-2.6,4.5-2.6,4.5-11.5,0.6C156.7,292.9,159.8,292.7,164.1,292.5z"/>
	<path class="st22" d="M107.7,335.1c-1.1-0.1-2.2-0.1-3.3-0.2c3.3-5.6,9.9-3,15.3-3.2c-2.9,0.8-5.8,1.5-8.8,2.3
		c-0.7,0.3-1.5,0.6-2.2,0.9l-0.6-0.1L107.7,335.1z"/>
	<path class="st22" d="M197.4,317.4c-3.3,0.3-6.7,0.7-10,1c3.4-0.8,6.8-1.7,10.1-2.5c0.5,0,1,0,1.5,0c0,0.4,0,0.7,0,1.1
		C198.5,317.1,198,317.3,197.4,317.4z"/>
	<path class="st22" d="M103,335c-2.3,0.7-4.6,1.4-6.9,2C98.4,336.4,100.7,335.7,103,335z"/>
	<path class="st22" d="M153.9,288.8c-1,0.4-1.7,0.8-2.3,0.8c-0.5-0.1-1-0.6-1.4-1c0.6-0.3,1.2-0.8,1.7-0.8
		C152.4,287.8,153,288.3,153.9,288.8z"/>
	<path class="st23" d="M838.2,228.4c-3.4,0.8-6.7,1.5-10.1,2.3c-1.7,0.4-3.3,0.7-5,1.1c-0.8,0.3-1.6,0.6-2.4,0.9
		c-17.2,2.2-34.4,4.7-51.7,6.5c-38.1,4-76.3,7.7-114.5,11.5c-5.2,0.5-10.4,0.7-15.6,1c-13.7-0.7-27.4-1.3-41.1-2
		c0,0.5,0,0.9-0.1,1.4c2.2,0.8,4.5,1.6,6.7,2.4c-1.3,0.2-2.5,0.4-3.8,0.6c-11.3-1.2-22.6-1.9-34,0.1c2.7,0.1,5.5,0.2,8.2,0.4
		c-8,0.3-16,0.5-24,0.8c-1-0.3-2-0.9-2.9-0.9c-24.5-0.1-49-0.1-73.6,0c-1,0-2,0.6-3,0.9c-30.5-1.4-61-2.8-91.5-4.1
		c-4.9-0.2-9.9-0.3-14.9-0.5c-10.5-0.8-21-1.7-31.5-2.5c-1.6,0-3.2,0-4.8,0.1c-7.7-1.1-15.4-2.3-23.1-3.4
		c-47.7-7.1-95.5-14.1-143.2-21.2c1.2-0.5,2.3-1.3,3.5-1.3c28.1-2,56.3-4.1,84.5-6c31.7-2.1,63.5-4,95.2-6.1
		c2.1-0.1,4.1-1.5,6.2-2.2c1.7,0.4,3.4,0.8,5,1.2c8.9,3.2,18.1,5.3,28.3,3.3c1.6,0.1,3.3,0.2,4.9,0.3c1.6,2.9,4,4.3,8.2,2.3
		c12.8,0.3,25.5,0.6,38.3,0.9c2.8,0.2,5.5,0.4,8.3,0.6c5.7,3.8,12,2.2,18.2,0.9c1.1,0,2.2,0,3.3,0.1c3.3,3.6,6.6,3.5,9.9,0.1
		c1.1-0.1,2.2-0.2,3.3-0.3c7.2,0,14.4,0.1,21.6,0.1c2.2,0,4.4,0,6.6,0c5.5,0,11.1-0.1,16.6-0.1c3.3,0.1,6.6,0.2,9.9,0.2
		c0.6,0.6,1.1,1.1,1.7,1.7c0.5-0.6,1.1-1.1,1.6-1.7c0.4-0.1,0.8-0.2,1.3-0.2c0.8,0,1.6,0,2.4,0c2.1,0.1,4.2,0.2,6.3,0.3
		c0.6,0.6,1.1,1.1,1.7,1.7c0.6-0.6,1.1-1.1,1.7-1.7c2.1-0.1,4.3-0.1,6.4-0.2c1.2,0,2.5,0,3.7,0c10.5-1.2,20.9-2.3,31.4-3.5
		c1.1-0.1,2.2-0.1,3.3-0.2c3.9-0.4,7.7-0.7,11.6-1.1c1.7-0.1,3.3-0.2,5-0.2c1.7-0.3,3.4-0.5,5-0.8c1.1-0.1,2.2-0.2,3.3-0.3
		c2.8-0.3,5.6-0.7,8.4-1c4.9-0.5,9.8-1.1,14.7-1.6c1.8-0.2,3.5-0.5,5.3-0.7c4.4,0.7,8.7,1.4,13.1,2.1c5.5,0.4,11.1,0.8,16.6,1.2
		c1.1,0,2.2,0,3.3,0c1.6,0.4,3.1,0.9,4.7,1.1c42.1,4,84.1,8,126.2,12.1C821.4,225.5,829.7,227.1,838.2,228.4z"/>
	<path class="st6" d="M977.1,202c-0.4-6.1-5.9-9.3-12.6-12.4c-31.3-14.7-62.2-29.7-93.3-44.6c37.1-13.9,74.2-27.8,111.2-41.8
		c0.5,0.6,0.9,1.8,1.4,1.8c5,0.1,10.1,0.1,14.8,0.1c2.4-2.5,5.5-5.6,8.6-8.8c0,0.4,0,0.8,0,1.2c-0.5,2.3-1.5,4.5-1.5,6.8
		c-0.1,25.9,0,51.7-0.1,77.6c0,3.6-0.8,7.2-1.2,10.8c-6.9,1.9-13.8,3.7-20.6,5.8C981.3,199.3,979.3,200.8,977.1,202z"/>
	<path class="st6" d="M678.7,211.4c-5.5-0.4-11.1-0.8-16.6-1.2c6.8-1.5,13.6-3,19.4-4.2c-0.7-0.3-2.7-1.1-4.7-1.9
		c44.7-9.5,87.3-22.7,129.6-36.6c32.2,13.5,64.4,27.1,96.7,40.6c4.8,2,7.6,4.4,6.1,8.6c-10.1,1.7-20.2,3.3-30.2,5
		c-8.5,1.5-17,3-25.6,4.6c-1.6-1.7-2.6-4.1-4.8-4.9c-27-9.9-54.2-19.5-81.4-29.1c-2.1-0.7-4.6-0.7-7.7,0.1c1.6,0.8,3.1,1.7,4.7,2.3
		c25.1,9,50.3,17.9,75.3,27.2c2.6,1,3.5,4.2,5.2,6.4c-2.2,0.1-4.3,0.2-6.5,0.3c-8.4-1.3-16.8-2.9-25.3-3.8
		c-42-4.1-84.1-8.1-126.2-12.1c-1.6-0.2-3.1-0.7-4.7-1.1c-0.5-0.6-1.1-1.1-1.6-1.7C679.8,210.3,679.3,210.9,678.7,211.4z"/>
	<path class="st6" d="M967.7,202.5c-17.2,3.9-34.4,7.7-51.5,11.6c-1.9-2.3-3-5.6-5.8-6.8c-28.5-12.4-57.3-24.6-86.1-36.7
		c-4.2-1.8-8.9-3-13.4-4.5c18.1-6.3,36.2-12.6,54.3-18.9c28.5,14.1,57,28.2,85.5,42.2c3.6,1.8,7.8,3.2,10.7,5.4
		C964.2,196.9,965.7,199.9,967.7,202.5z"/>
	<path class="st24" d="M842.8,70.4c8.2-3.1,16.3-6.3,24.5-9.4c1.2,1.8,2.4,3.5,3.6,5.3c9.7,13.8,19.3,27.6,29,41.5
		c-3.6,1.4-7.1,2.8-10.7,4.2c-4.2-3.3-8.7-6.5-12.5-10.1C865.3,91.5,854.1,80.9,842.8,70.4z"/>
	<path class="st24" d="M863,120c-10.1,4-20.1,8.1-30.4,11.8c-4.5,1.6-9.5,2.4-14.3,3.6c2.2-15.1,4.5-30.2,6.9-46.6
		C838.7,99.9,850.9,109.9,863,120z"/>
	<path class="st24" d="M788.3,145c-6.6-14.3-13.2-28.6-19.8-42.9c10.9-4.8,21.7-9.5,32.6-14.3c-2.5,18.2-5,36.5-7.6,54.7
		C791.8,143.4,790.1,144.2,788.3,145z"/>
	<path class="st24" d="M826.4,77.3c3.4-1.6,6.8-3.1,10.1-4.7c5,4.2,10,8.3,14.9,12.5c11.2,9.6,22.4,19.3,33.7,28.9
		c-5.7,2-11.4,4-17.1,6c-12.1-10.5-24.6-20.7-36.2-31.5C828.6,85.5,828.1,81.1,826.4,77.3z"/>
	<path class="st24" d="M975.9,79.6c-9.7-8.3-18.9-16.9-29.2-24.8c-9.3-7.1-8.6-14.7-5.1-24.1c4.8,3.9,9,7.1,13,10.5
		c12.8,10.8,25.6,21.6,38.4,32.4C987.2,75.6,981.5,77.6,975.9,79.6z"/>
	<path class="st24" d="M931.1,97.3c2.1-14.6,4.2-29.2,6.5-45.7c12.7,11,23.9,20.6,35.1,30.3C958.9,87.1,945,92.2,931.1,97.3z"/>
	<path class="st24" d="M911,104.6c2.8-21.5,5.5-43.1,8.3-64.7c8.4,1.9,14.1,7.5,13.5,12.9c-1.7,15.3-3.4,30.6-5.2,45.9
		C922.1,100.7,916.6,102.6,911,104.6z"/>
	<path class="st24" d="M803.2,86.6c4.3-1.6,8.6-3.1,13-4.7c6.5,2.2,5.4,6.2,4.8,10.2c-2.2,14.9-4.1,29.7-6.1,44.6
		c-5.5,1.5-11,3.1-16.5,4.6c1.9-14.7,4-29.3,5.7-44C804.4,93.8,803.5,90.2,803.2,86.6z"/>
	<path class="st15" d="M814.8,136.8c2-14.9,3.9-29.8,6.1-44.6c0.6-4,1.7-8-4.8-10.2c3.4-1.5,6.8-3.1,10.3-4.6
		c1.7,3.8,2.3,8.2,5.5,11.2c11.6,10.8,24,21,36.2,31.5c-1.7,0-3.3,0-5,0c-12.2-10.1-24.4-20.1-37.7-31.1
		c-2.4,16.4-4.7,31.5-6.9,46.6C817.2,135.8,816,136.3,814.8,136.8z"/>
	<path class="st12" d="M899.9,107.7c-9.7-13.8-19.3-27.6-29-41.5c-1.2-1.8-2.4-3.5-3.6-5.3c2.2-0.9,4.5-1.7,6.7-2.6
		c10.6,14.3,21.1,28.6,31.7,42.9c0.3,1.5,0.5,3,0.8,4.4C904.3,106.4,902.1,107.1,899.9,107.7z"/>
	<path class="st15" d="M885.1,114c-11.2-9.6-22.4-19.3-33.7-28.9c-4.9-4.2-9.9-8.4-14.9-12.5c2.1-0.7,4.2-1.5,6.3-2.2
		c11.3,10.5,22.4,21.1,33.9,31.5c3.9,3.5,8.3,6.7,12.5,10.1C887.8,112.7,886.4,113.3,885.1,114z"/>
	<path class="st15" d="M803.2,86.6c0.3,3.6,1.2,7.2,0.8,10.8c-1.7,14.7-3.8,29.3-5.7,44c-1.6,0.4-3.2,0.8-4.7,1.2
		c2.5-18.2,5-36.5,7.6-54.7C801.8,87.4,802.5,87,803.2,86.6z"/>
	<path class="st12" d="M676.8,204c2,0.8,4,1.6,4.7,1.9c-5.8,1.3-12.6,2.8-19.4,4.2c-4.4-0.7-8.7-1.4-13.1-2.1
		C658.3,206.8,667.6,205.4,676.8,204z"/>
	<path class="st6" d="M184.1,163.4c-1.8,1.8-3.1,4.2-5.6,5.2c-29.7,12.5-59.5,24.8-89.4,37.1c-1.8,0.8-4.1,1-6.2,1.4
		c-15-3.7-30-7.4-45-11.1c4.7-3.3,8.9-7,14.2-9.7c23.9-12,48.1-23.6,72.2-35.4c3.4-1.6,6.8-3.2,10.2-4.7
		C151.1,151.9,167.6,157.6,184.1,163.4z"/>
	<path class="st6" d="M245.5,183.4c-3.4,2.3-6.3,5.2-10.3,6.7c-29.4,10.5-58.9,20.8-88.4,31.1c-18.1-4-36.1-8-54.2-11.9
		c31.6-13.6,63.1-27.2,94.8-40.7c2.2-0.9,5.3-0.8,8-1.2C212,172.7,228.8,178,245.5,183.4z"/>
	<path class="st6" d="M351.7,208c-2,0.8-4,2.1-6.2,2.2c-31.7,2.1-63.5,4-95.2,6.1c-28.2,1.9-56.3,3.9-84.5,6
		c-1.2,0.1-2.3,0.9-3.5,1.3c-1.1-0.2-2.2-0.5-3.3-0.7c6.2-3,12.1-6.5,18.7-9c19-7.1,38.4-13.8,57.6-20.8c5.4-2,10.4-4.4,15.6-6.7
		c8.8,2,17.6,4,26.4,6c17.8,4.1,35.6,8.3,53.5,12.1C337.6,206.1,344.7,206.9,351.7,208z"/>
	<path class="st0" d="M133.6,60.8c8,3.5,16,7,24,10.5c-0.6,0.9-1,1.8-1.8,2.5c-14.3,12.6-28.7,25.2-43,37.8
		c-4.4-1.5-8.9-2.9-13.3-4.4C110.8,91.8,122.2,76.3,133.6,60.8z"/>
	<path class="st24" d="M199.3,89c9.8,3.8,19.6,7.6,29.3,11.6c1.2,0.5,1.6,1.9,2.4,2.9c-6.2,13.8-12.4,27.6-18.7,41.5
		c-2.2-0.8-4.4-1.6-6.6-2.4c-1-7.8-2.1-15.7-3-23.5C201.5,109,200.4,99,199.3,89z"/>
	<path class="st24" d="M180.8,135.5c-12.9-4.3-25.9-8.6-38.8-13c-1.6-0.6-2.9-1.6-4.4-2.4c12-9.8,24-19.7,37.5-30.8
		C177.2,105.8,179,120.6,180.8,135.5z"/>
	<path class="st24" d="M163.9,73.8c3.4,1.3,6.8,2.7,10.2,4c-1.9,3.7-2.6,8.1-5.8,11c-10.9,10.2-22.7,20-34.2,30
		c-5.7-2-11.3-4.1-17-6.1C132.8,99.8,148.4,86.8,163.9,73.8z"/>
	<path class="st24" d="M8.1,73.7c3.7-3.3,7.3-6.8,11.1-10C32.1,53,45,42.4,58.1,31.6c5.5,12.6,4.4,16.5-8.3,27.2
		c-7.8,6.6-15.7,13.2-23.6,19.7C20.2,76.9,14.2,75.3,8.1,73.7z"/>
	<path class="st0" d="M72.7,97.4c-2-14.3-3.8-28.5-6.2-42.7c-1.3-7.6,7.7-10,11.7-15c0.7,0.1,1.5,0.2,2.2,0.3
		c3,21.1,6,42.3,9.1,63.4C83.9,101.4,78.3,99.4,72.7,97.4z"/>
	<path class="st24" d="M184.7,83.1c3.1,1.1,6.3,2.3,9.4,3.4c2.3,18.3,4.6,36.6,6.9,54.9c-5.2-2-10.3-4-15.5-6
		c-0.8-5.3-1.7-10.5-2.4-15.8c-1.4-10-2.7-20-4-29.9C178.7,86.6,178.9,83.6,184.7,83.1z"/>
	<path class="st0" d="M238.6,105.5c8.4,3.5,16.8,7.1,25.2,10.6c-9.2,8.5-18.5,17-27.6,25.6c-2.2,2.1-3.8,4.6-5.7,6.9c0,0,0,0,0,0
		c-1,0.1-2.1,0.1-3.1,0.2c-2.3-0.8-4.7-1.6-7-2.5C226.5,132.6,232.6,119,238.6,105.5z"/>
	<path class="st24" d="M29.5,80.8C39.9,71.9,50.2,62.9,60.6,54c0.7,0.1,1.4,0.2,2.1,0.3c1.8,13.5,3.6,27.1,5.3,40.6
		c-4-1.2-8.2-2.2-12-3.7C47.1,87.9,38.3,84.3,29.5,80.8z"/>
	<path class="st24" d="M269.5,118.6c0.9,0.2,1.7,0.3,2.6,0.5c0.5,6.8,1,13.5-6.7,19c-7.1,5.1-13.3,10.9-19.8,16.4
		c-4.5-2-8.9-4-13.4-6C244.7,138.6,257.1,128.6,269.5,118.6z"/>
	<path class="st24" d="M291.5,127.1c-0.4,2.3-1.4,4.6-1.1,6.8c1.3,10.8,3,21.6,4.5,32.3c-4.4-0.7-8.9-1.5-13.3-2.2
		c-1.1-8.8-1.6-17.7-3.5-26.5c-1.4-6,2.3-9.1,8.8-11.6C288.5,126.3,290,126.7,291.5,127.1z"/>
	<path class="st15" d="M184.7,83.1c-5.8,0.5-6,3.5-5.6,6.6c1.3,10,2.6,20,4,29.9c0.7,5.3,1.6,10.5,2.4,15.8c-1.5,0-3.1,0-4.6,0.1
		c-1.8-14.8-3.7-29.6-5.7-46.2c-13.5,11.1-25.5,20.9-37.5,30.8c-1.1-0.4-2.2-0.8-3.4-1.1c11.5-10,23.2-19.7,34.2-30
		c3.2-3,3.9-7.3,5.8-11C177.7,79.6,181.2,81.3,184.7,83.1z"/>
	<path class="st12" d="M133.6,60.8c-11.4,15.5-22.8,31-34.2,46.5c-1.9-1.3-3.8-2.6-5.6-3.9c0.1-0.5,0.2-1.1,0.4-1.6
		c1.4-1.4,3.1-2.7,4.2-4.2c9.4-13,18.6-26.1,27.9-39.2C128.7,59.2,131.1,60,133.6,60.8z"/>
	<path class="st24" d="M277.1,161.5c-0.4,0.5-1,1.4-1.1,1.4c-8.6-2.4-17.2-4.9-25.8-7.3c7.4-6.4,14.8-12.8,23.4-20.3
		C275,144.9,276.1,153.2,277.1,161.5z"/>
	<path class="st12" d="M238.6,105.5c-6.1,13.6-12.1,27.2-18.2,40.7c-2.7-0.4-5.4-0.9-8.1-1.3c6.2-13.8,12.4-27.6,18.7-41.5
		C233.6,104.1,236.1,104.8,238.6,105.5z"/>
	<path class="st14" d="M277.1,161.5c-1.1-8.3-2.2-16.6-3.4-26.3c-8.6,7.5-16,13.9-23.4,20.3c-1.6-0.3-3.1-0.7-4.7-1
		c6.6-5.5,12.7-11.3,19.8-16.4c7.7-5.6,7.1-12.2,6.7-19c5,2.3,9.9,4.6,14.9,6.8c-6.6,2.4-10.2,5.5-8.8,11.6c2,8.7,2.4,17.6,3.5,26.5
		C280.2,163.2,278.7,162.3,277.1,161.5z"/>
	<path class="st15" d="M163.9,73.8c-15.6,13-31.1,26-46.7,39c-1.5-0.4-3.1-0.8-4.6-1.1c14.3-12.6,28.7-25.2,43-37.8
		c0.8-0.7,1.2-1.7,1.8-2.5C159.7,72.1,161.8,73,163.9,73.8z"/>
	<path class="st15" d="M201,141.4c-2.3-18.3-4.6-36.6-6.9-54.9c1.7,0.8,3.5,1.7,5.2,2.5c1.1,10,2.2,20,3.4,30c0.9,7.9,2,15.7,3,23.5
		C204.2,142.2,202.6,141.8,201,141.4z"/>
	<path class="st15" d="M269.5,118.6c-12.4,10-24.9,20-37.3,30c-0.6,0-1.1-0.1-1.7-0.1c1.9-2.3,3.5-4.8,5.7-6.9
		c9.1-8.6,18.4-17.1,27.6-25.6C265.8,116.9,267.6,117.8,269.5,118.6z"/>
	<path class="st11" d="M385,212.5c-10.1,2-19.3-0.1-28.3-3.3c0.6-0.1,1.1-0.2,1.7-0.3C367.3,210.1,376.2,211.3,385,212.5z"/>
	<path class="st15" d="M227.5,148.7c1-0.1,2.1-0.1,3.1-0.2C229.5,148.6,228.5,148.6,227.5,148.7z"/>
	<path class="st1" d="M789.9,453.7c-8.1-8.3-16.1-16.7-24.2-25c-7.5-7.7-15.2-15.3-22.7-23.1c-1.5-1.5-2-3.5-3-5.3
		c38.4,0,76.8,0,115.2,0c0.1-0.6,0.2-1.1,0.3-1.7c-4-2.4-8.1-4.7-12-7.1c-10.2-6.5-20.3-13.1-30.5-19.6c36.6,0,73.2-0.1,109.8-0.1
		c15.2,5.2,30.5,10.4,45.6,15.7c8.5,3,16.8,6.2,25,9.4c1.7,0.7,2.8,2.1,4.1,3.2c-45.5,0-91.1,0-136.6,0c2.5,3.1,5.2,4.7,8,6.3
		c16.7,9.9,33.6,19.7,50,29.9c8.8,5.5,16.9,11.5,25.4,17.3C892.9,453.7,841.4,453.7,789.9,453.7z"/>
	<path class="st18" d="M944.4,453.6c-8.4-5.8-16.5-11.9-25.4-17.3c-16.4-10.2-33.3-19.9-50-29.9c-2.7-1.6-5.5-3.2-8-6.3
		c45.5,0,91.1,0,136.6,0c0.9,0,1.9,0,2.8,0.1c0.6,0,1.2,0,1.9,0.1c1.7,0.4,3.4,0.8,5,1.3c0,17.4-0.1,34.8-0.1,52.2
		c-19.4,0-38.7,0-58.1,0.1C947.6,453.7,946,453.7,944.4,453.6z"/>
	<path class="st8" d="M433,371.8c-34.9,0-69.8-0.1-104.7-0.1c1.5-2,2.8-4.1,4.5-6c2.8-3.2,5.9-6.2,10.1-10.6c-32,0-61.4,0-90.9,0
		c1.7-1.7,3.1-3.7,5.1-5.2c4.8-3.4,9.9-6.6,14.8-9.9c29.3,0.3,58.7,0.6,88,0.9c-4.3,4.4-8.5,8.7-14.1,14.4c33.1,0,64.3,0,95.6,0
		C438.7,360.7,435.9,366.2,433,371.8C433.1,371.8,433,371.8,433,371.8z"/>
	<path class="st8" d="M763.3,341c19.6,0,39.4-0.9,58.9,0.3c12.8,0.8,25.4,4.3,37.8,7.2c6.3,1.5,12,4.4,18,6.7c-30.7,0-61.4,0-92.1,0
		c2.9,3.4,6.3,5.1,9.1,7.2c4.1,3,7.8,6.2,11.6,9.4c-32.1,0-64.2,0.1-96.4,0.1c0,0-0.1,0-0.1,0c-4.4-5.5-8.9-11-13.3-16.5
		c27.8,0,55.5,0,83.3,0c-5.4-4.7-11.2-8-16.7-11.4C762.8,343.4,763.3,341.9,763.3,341z"/>
	<path class="st25" d="M197.4,317.4c0.5-0.1,1.1-0.3,1.6-0.4c46.5,0,92.9,0,139.4,0c1.1,0.4,2.3,0.7,3.4,1.1
		c0,5.6-0.1,11.1-0.1,16.7c-47.5,0-95,0-142.6,0.1C198.5,329,198,323.2,197.4,317.4z"/>
	<path class="st4" d="M804.7,317.5c22.8,4.3,45.8,8.2,68.5,12.9c15.1,3.1,29.7,7.1,44.6,10.7c0.6,6.3,1.1,12.6,1.7,18.9
		c-3.1-0.3-6.3-0.2-9.2-0.9c-25-6.5-49.8-13.6-74.9-19.7c-9.8-2.4-20.4-3-30.6-4.5C804.8,329.1,804.7,323.3,804.7,317.5z"/>
	<path class="st25" d="M804.7,317.5c0,5.8,0,11.6,0,17.4c-37,0-74-0.1-111.1-0.1c0.1-5.8,0.1-11.6,0.2-17.5c1-0.1,2.1-0.2,3.1-0.4
		c35.4,0,70.7,0,106.1,0C803.7,317.2,804.2,317.3,804.7,317.5z"/>
	<path class="st26" d="M341.6,334.8c0-5.6,0.1-11.1,0.1-16.7c3.3-0.4,6.7-0.8,10-1.1c2.7,0,5.4,0,8.1,0c1.2,0,2.3,0,3.5,0
		c8.2,0,16.5,0,24.7,0c2.3,0,4.5,0,6.8,0c18.2,0.1,36.5,0.2,54.7,0.4c0,5.8,0,11.7,0,17.5c0,0-0.1,0.4-0.1,0.4
		c-32.1-0.1-64.3-0.1-96.4-0.2C349.3,335,345.5,334.9,341.6,334.8z"/>
	<path class="st26" d="M693.9,317.4c-0.1,5.8-0.1,11.6-0.2,17.5c-7.2,0.1-14.3,0.3-21.5,0.4c-13.9,0-27.7,0-41.6,0
		c-13.3,0-26.6,0-39.9,0c-1.1-0.1-2.2-0.3-3.3-0.4c0-5.8,0-11.6,0-17.4c1.1-0.1,2.3-0.3,3.4-0.4c0,0,0.8,0.1,0.8,0.1l0.8-0.1
		c1.7,0,3.4,0,5.1,0c7.2,0,14.4,0,21.5,0c1.1,0,2.2,0,3.4,0c2.2,0,4.4,0,6.5,0c2.8,0,5.6,0,8.4,0c13.8,0,27.6,0,41.3,0
		c1.2,0,2.3,0,3.5,0c2.7,0,5.4,0,8.2,0C691.5,317.1,692.7,317.2,693.9,317.4z"/>
	<path class="st27" d="M806.6,371.7c-3.9-3.1-7.6-6.4-11.6-9.4c-2.8-2.1-6.2-3.8-9.1-7.2c30.7,0,61.4,0,92.1,0
		c15,5.5,29.9,11.1,44.9,16.6c-36.6,0-73.2,0.1-109.8,0.1C810.9,371.8,808.8,371.7,806.6,371.7z"/>
	<path class="st5" d="M272,339.9c-5,3.3-10.1,6.5-14.8,9.9c-2.1,1.5-3.4,3.4-5.1,5.2c-2.7,0.1-5.4,0.1-8.1,0.2
		c-36.1,0-72.1-0.1-108.2-0.1c21.9-9.1,45.2-15.2,70.8-15.4C228.4,339.6,250.2,339.8,272,339.9z"/>
	<path class="st5" d="M441.5,355.2c-31.2,0-62.4,0-95.6,0c5.6-5.7,9.8-10,14.1-14.4c32.6,0,65.3,0,97.9,0.1
		c-10.2,1.9-13.2,7.4-13.3,14.1C443.6,355.1,442.5,355.2,441.5,355.2z"/>
	<path class="st5" d="M511.1,340.9c31,0,61.9,0,92.9,0c1.1,4.7,2.2,9.5,3.3,14.2c-29.3,0-58.6,0-87.9,0c0-4.3,0-8.5,0-12.4
		C516.2,342.1,513.6,341.5,511.1,340.9z"/>
	<path class="st5" d="M763.3,341c0,1-0.5,2.4,0.1,2.8c5.5,3.4,11.3,6.7,16.7,11.4c-27.8,0-55.5,0-83.3,0c-1.6-0.1-3.2-0.1-4.8-0.2
		c-1-7.4-6.3-12.3-16.6-14.1C704.7,341,734,341,763.3,341z"/>
	<path class="st1" d="M675.4,341c10.3,1.8,15.6,6.7,16.6,14.1c-27.7,0-55.4,0.1-83.1,0.1c-0.6,0-1.1,0-1.7,0
		c-1.1-4.7-2.2-9.5-3.3-14.2C627.8,340.9,651.6,340.9,675.4,341z"/>
	<path class="st8" d="M511.1,340.9c2.5,0.6,5.1,1.1,8.3,1.8c0,3.9,0,8.1,0,12.4c0,0-0.1,0-0.1,0c-24.9,0-49.8-0.1-74.7-0.1
		c0.1-6.8,3.1-12.2,13.3-14.1C475.6,340.9,493.4,340.9,511.1,340.9z"/>
	<path class="st12" d="M587.4,334.8c1.1,0.1,2.2,0.3,3.3,0.4c-2.3,0.7-4.6,2-6.8,2c-42.5,0.1-85,0.1-127.4,0c-2.3,0-4.5-1.3-6.8-2
		c0,0,0.1-0.4,0.1-0.4c20.5,0.1,40.9,0.2,61.4,0.3c2.4,0.3,4.7,0.9,7.1,1c20.1,0.1,40.2,0.1,60.4,0c2.4,0,4.8-0.6,7.1-0.9
		C586.3,335.1,586.8,335,587.4,334.8z"/>
	<path class="st12" d="M630.6,335.3c13.9,0,27.7,0,41.6,0c2.9,0.3,5.9,0.9,8.8,0.9c28.5,0.1,56.9,0,85.4,0c2.7,0,5.4,0,8.1,0
		c0,0.3,0,0.6,0,0.9c-2,0.1-4.1,0.3-6.1,0.3c-43.1,0-86.2,0.1-129.3-0.1C636.3,337.3,633.4,336,630.6,335.3z"/>
	<path class="st17" d="M444.7,216.5c-2.8-0.2-5.5-0.4-8.3-0.6c0.6-0.6,1.2-1.8,1.8-1.7c13.2,0.3,26.4,0.7,39.5,1.3
		c0.6,0,1.2,1.2,1.7,1.8c-1.1,0.1-2.2,0.2-3.3,0.3c-3.3,0-6.6-0.1-9.9-0.1c-1.1,0-2.2,0-3.3-0.1
		C456.8,217.1,450.8,216.8,444.7,216.5z"/>
	<path class="st17" d="M534.3,217.5c-3.3-0.1-6.6-0.2-9.9-0.2c5.1-1.1,10.8-3.6,15.3-2.9c6,1,13.1-2.7,18,2c-0.1,0.3-0.2,0.6-0.3,1
		c-2.1,0.1-4.3,0.1-6.4,0.2c-1.1,0-2.2,0-3.3,0c-2.1-0.1-4.2-0.2-6.3-0.3c-0.8,0-1.6,0-2.4,0c-0.4,0-0.9,0.1-1.3,0.2
		C536.5,217.5,535.4,217.5,534.3,217.5z"/>
	<path class="st17" d="M592.4,213.9c-10.5,1.2-20.9,2.3-31.4,3.5c-0.1-0.3-0.2-0.6-0.3-1C570.6,210.8,581.6,212.9,592.4,213.9z"/>
	<path class="st17" d="M607.3,212.7c-3.9,0.4-7.7,0.7-11.6,1.1C599,210,603.1,211.2,607.3,212.7z"/>
	<path class="st11" d="M398.1,215.1c-4.2,2-6.6,0.6-8.2-2.3C392.7,213.6,395.4,214.3,398.1,215.1z"/>
	<path class="st17" d="M629,210.4c-2.8,0.3-5.6,0.7-8.4,1C622.7,207.9,625.7,208.7,629,210.4z"/>
	<path class="st17" d="M617.4,211.7c-1.7,0.3-3.4,0.5-5,0.8c0.8-1,1.6-2,2.3-3C615.6,210.1,616.5,210.9,617.4,211.7z"/>
	<path class="st17" d="M507.7,217.4c-2.2,0-4.4,0-6.6,0C503.3,214.1,505.5,214.1,507.7,217.4z"/>
	<path class="st11" d="M560.7,216.4c0.1,0.3,0.2,0.6,0.3,1c-1.2,0-2.5,0-3.7,0c0.1-0.3,0.2-0.6,0.3-1
		C558.7,216.4,559.7,216.4,560.7,216.4z"/>
	<path class="st0" d="M905.7,101.3C895.1,87,884.6,72.7,874,58.4c1.4-1.1,2.5-2.6,4.2-3.3c12-5,24.1-9.8,36.2-14.6
		c-1.9,16.3-3.8,32.5-5.9,48.7C908,93.3,906.7,97.3,905.7,101.3z"/>
	<path class="st24" d="M936,31c-0.2,3.4-0.4,6.7-0.6,10.1c-0.8,0.1-1.5,0.3-2.3,0.4c-2.4-2-4.8-4-7.1-6C929.3,34,932.7,32.5,936,31z
		"/>
	<path class="st12" d="M952.1,16.5c0.7-0.4,1.4-0.7,2.1-1.1C953.5,15.8,952.8,16.2,952.1,16.5z"/>
	<path class="st24" d="M126.3,58.4c-9.3,13.1-18.5,26.2-27.9,39.2c-1.1,1.5-2.8,2.8-4.2,4.2c-1.4-7.2-3.2-14.3-4.2-21.5
		c-1.9-13.3-3.5-26.6-5.2-39.9C98.5,46.4,112.4,52.4,126.3,58.4z"/>
	<path class="st24" d="M73,36.3c-2,2.4-4,4.8-6,7.1c-0.7-0.1-1.3-0.3-2-0.4c0-3.3,0-6.7,0-10.1C67.7,34,70.4,35.1,73,36.3z"/>
	<path class="st6" d="M49.6,17.9c1.7-0.2,3.5-0.3,5.2-0.5c2.7-0.3,5.4-0.6,8.1-0.9c1.1,2.4,2.3,4.8,3.4,7.2
		C60.8,21.9,55.2,19.9,49.6,17.9z"/>
	<path class="st0" d="M180.7,65.4c-0.5,0.4-1,0.8-1.4,1.2C179.7,66.2,180.2,65.8,180.7,65.4z"/>
	<path class="st5" d="M806.6,371.7c2.2,0,4.3,0.1,6.5,0.1c10.2,6.6,20.3,13.1,30.5,19.6c3.9,2.5,8,4.8,12,7.1
		c-0.1,0.6-0.2,1.1-0.3,1.7c-38.4,0-76.8,0-115.2,0c-1.6,0-3.2-0.1-4.9-0.1c-8.3-9.5-16.6-18.9-24.9-28.4
		C742.4,371.8,774.5,371.7,806.6,371.7z"/>
	<path class="st1" d="M710.3,371.8c8.3,9.5,16.6,18.9,24.9,28.4c-35.4,0-70.9,0.1-106.3,0.1c-3.5-7.4-7.1-14.7-10.4-22.1
		c-0.9-2-0.9-4.2-1.3-6.3C648.2,371.8,679.2,371.8,710.3,371.8C710.2,371.8,710.3,371.8,710.3,371.8z"/>
	<path class="st1" d="M519.4,371.8c0,9.5,0,19,0,28.5c-33.8,0-67.5-0.1-101.3-0.1c3.6-7.1,7.2-14.2,10.9-21.3c1.2-2.4,2.7-4.7,4-7.1
		c0,0,0.1,0,0.1,0C461.8,371.8,490.6,371.8,519.4,371.8L519.4,371.8z"/>
	<path class="st27" d="M244,355.2c2.7-0.1,5.4-0.1,8.1-0.2c29.5,0,58.9,0,90.9,0c-4.2,4.4-7.3,7.5-10.1,10.6c-1.7,1.9-3,4-4.5,6
		c-1.6,0-3.2,0.1-4.8,0.1c-33.3,0-66.6,0-99.9,0c-0.2-0.4-0.5-0.9-0.7-1.3c5.6-3.5,11.4-7,16.8-10.6
		C241.5,358.6,242.6,356.8,244,355.2z"/>
	<path class="st8" d="M607.3,355.2c0.6,0,1.1,0,1.7,0c1.7,5.5,3.4,11,5.1,16.6c-31.6,0-63.1,0.1-94.7,0.1c0,0-0.1,0-0.1,0
		c0-5.5,0-11,0-16.6c0,0,0.1,0,0.1,0C548.7,355.1,578,355.2,607.3,355.2z"/>
	<path class="st27" d="M614.1,371.7c-1.7-5.5-3.4-11-5.1-16.6c27.7,0,55.4-0.1,83.1-0.1c1.6,0.1,3.2,0.1,4.8,0.2
		c4.4,5.5,8.9,11,13.3,16.5c-31,0-62,0-92.9,0.1C616.2,371.8,615.1,371.8,614.1,371.7z"/>
	<path class="st25" d="M587.4,334.8c-0.6,0.1-1.1,0.2-1.7,0.4c-24.9,0-49.7,0-74.6,0c-20.5-0.1-40.9-0.2-61.4-0.3
		c0-5.8,0-11.7,0-17.5c2.2-0.1,4.4-0.2,6.6-0.3c40.9,0,81.8,0,122.7,0c2.8,0.1,5.6,0.3,8.3,0.4C587.4,323.2,587.4,329,587.4,334.8z"
		/>
	<path class="st22" d="M838.2,285.1c16.6,0.7,33.2,1.4,52.1,2.3c-11-6.4-22.9-3-32.8-5.4c0-0.6,0-1.1-0.1-1.7
		c5.4-0.4,10.9-1.2,16.3-1c13.2,0.5,26.3,1.4,39.4,2.3c2.1,0.2,4.1,1.5,5.8,2.5c0.4,0.2-1,2.5-1.2,2.4c-2.1-0.3-4.1-1.3-6.1-1.3
		c-2.9-0.1-5.8,0.5-8.2,0.8c-3.8-0.4-7.3-0.7-12.8-1.3c4.9,3,7.8,4.7,10.6,6.5c-0.5,0.5-1.1,1-1.6,1.5c-7.7-1.3-15.4-2.4-22.9-1.1
		c0,0.7-0.1,1.5-0.1,2.2c8.9,1.2,17.9,2.5,27.5,3.8c-1.1,0.9-1.5,1.3-2,1.6c-1.9,1.4-3.9,2.9-5.8,4.3c2.2,1,4.3,2.1,6.5,3
		c2,0.8,5.6,1.3,5.8,2.2c0.3,1.4-1.6,3.1-2.9,5.1c-7.8-7.1-20.4-8.6-25.9-3.1c4.4,1.1,8.5,2.1,15,3.7c-4.6,1.8-7.1,2.9-10,4
		c-1.5-1.7-2.6-3-3.8-4.3c-0.2,0.4-0.4,0.9-0.6,1.3c-12.3-1.6-24.5-3.2-36.8-4.8c0-0.6,0.1-1.2,0.1-1.8c8.1-3.5,17.1,1.6,25.9-0.9
		c-3.5-1.1-7-2-10.3-3.2c-2.8-1-9.6,0.5-7-4.4c12.1,1.3,23.7,2.7,35.4,3.7c1.5,0.1,4-1.4,4.6-2.5c0.5-0.9-0.7-3.1-1.9-3.5
		c-1.5-0.4-3.9,0.3-5.6,0.9c-1.1,0.4-1.8,1.4-3.3,2.7c-2.6-6.4-8-4.2-13.6-2.2c-3.2-3.9-6.4-5.8-13.2-3.2c-3.1,1.2-8.7-0.7-14.7-1.3
		c-0.4-2.2,1.6-3.4,6.5-3.1c6.2,0.3,12.5,0.5,18.7,0.5c1.4,0,2.9-0.9,3.9-2.8c-10.3-0.6-20.7-1.2-31-1.9
		C838.1,286.7,838.1,285.9,838.2,285.1z"/>
	<path class="st21" d="M639.3,312.3c-4.2-4.3-8.3-5.1-11.8,1.5c-4.1-6.9-9.1-5.7-14.5-1c-4.3-4.5-8.8-5.9-14.1-0.7
		c-3.9-3.3-8.1-5.3-11.7,0.3c-3.5-4-2.5-5.6,4.1-5.7c10.5-0.3,20.9-0.1,31.4-0.1c28.7,0,57.5,0,87.3,0c-1.1,2.5-1.7,4-2.7,6.2
		c-4.6-2.5-8.8-6.8-13.5,0.1c-5.1-6.2-9.9-3.8-14.8-0.4c-4.8-3.1-9.7-6.3-14.1,0C659.1,308.3,646.5,308.3,639.3,312.3z"/>
	<path class="st21" d="M795.3,295.3c-5,0.4-10.7,2.1-14.1,0.9c-6.3-2.3-9.6-1.7-12.4,2.6c-2.7-1.4-5.2-3.5-7.9-3.7
		c-2.4-0.2-5,1.9-7.9,3.1c-1.3-0.8-3.4-3-5.6-3.1c-1.9-0.1-4.1,2.2-6.6,3.7c-2.6-3.1-5.3-4.8-11.8-2.6c-4.4,1.5-11.2-1.2-16.8-1
		c-3.6,0.1-7.1,1.9-11.6,3.2c-3.4-2.4-8.1-4.7-13.3,0.9c-3.9-5.4-8.1-3.8-11.7-0.3c-3.3-1.6-6.1-2.9-9.7-4.6
		c15.1-0.7,29.5-1.8,43.9-2c15-0.2,30.1,1.3,44.9,0.3C778.4,291.1,792.8,291.5,795.3,295.3z"/>
	<path class="st21" d="M298.4,290.3c-6-0.4-10.6-0.7-16.8-1.2c2.7-1,5-2.7,7.3-2.7c12.1,0,24.2,0.6,36.3,0.7c13,0.2,26,0.2,39,0.2
		c15.4,0,30.7,0,46.1,0.7c-3.4,1.6-5.5,5.2-11,2.1c-1.2-0.7-5.3,1.2-8.7,2c-4-3.1-8.9-4-13.8,1c-4.4-3.5-8.6-7.9-13.9-0.9
		c-4.2-2-8.1-6.7-12.5-0.7c-4.7-1.4-10.2-5.8-12.5,2.7c-3.5-4.8-6.8-8.9-12.7-2.7c-4.9-4.5-9.4-4.1-13.7,0.5
		C306.9,290.9,302.7,282.7,298.4,290.3z"/>
	<path class="st21" d="M420.2,302.7c-5-6-7.1-6-13.4-0.2c-4.7-2.8-9.7-5.7-15.1,0c-3.8-3.8-7.9-4.7-11.9,0.4c-1.7-1.8-3-3.1-5.7-5.9
		c41.2,0,80.6,0,120,0c-1-1-2-2-3-3.1c-2.1,1.8-4.3,3.7-6.3,5.4c-4.3-3.5-4.3-3.5-12.5,2.5c-4.5-2.9-9.5-6.2-14.2,0.1
		c-4.1-1.2-8.5-7.7-11.6,1.1c-4.1-4.7-8.4-5.2-13.2-1.6C427.8,295.6,423.8,298.9,420.2,302.7z"/>
	<path class="st3" d="M524.2,278c1.1-0.4,2.3-0.8,3.4-1.2c8.3-0.2,16.6-0.3,24.9-0.6c0.6,0,1.2-1.1,1.8-1.7c1,0,2,0,2.9,0
		c2.3,0.4,4.5,0.8,6.8,1.2c7.7,0.4,15.4,1,23.1,1c10,0,20-0.7,30-1c2.8,0,5.6,0,8.4-0.1c7.2,0.4,14.4,0.8,21.6,1.2
		c1.6,0,3.1,0,2.7,0c-1,2.1-1.9,4-2.9,5.9c-0.5,0-1,0-1.5,0c-3.7-5.5-8-7.2-13.5-0.9c-4.7-5.6-6.1-5.4-13.4,0.3
		c-7.3-5.4-8.9-5.5-14.7-1.1c-3.8-3.9-8.3-4.1-13-0.8c-5.4-4.3-8.8-1.8-11.7,2.1c-4.9-5.9-6.9-5.9-13.3,0c-3.6-6-8.5-5.5-13.5-1.2
		c-6.9-3.9-21.1-4.1-27.5-0.3C524.7,279.8,524.5,278.9,524.2,278z"/>
	<path class="st21" d="M645.6,282.7c0.5,0,1,0,1.5,0c12.2,0.7,24.4,1.9,36.6,2c16.2,0.2,32.4-0.6,48.5-0.7c2.1,0,4.1,1.8,5.6,3.5
		c-4.8-0.8-9.1-5.9-12.9,1c-5.6-4.2-10.4-5.4-13.5,0.7c-7.4-4.1-10.6-4.1-15.9-0.2c-5.7-3.9-6.1-3.9-11.8,0.8
		c-5.8-4.9-33.1-4.5-39.4,0.5c-6.3-5.5-7.6-5.5-11.9-2c-5.9,0-9.5,0.1-13.1-0.1c-1.7-0.1-3.4-0.8-5.1-1.2c0.3-0.5,0.6-1.1,0.9-1.6
		c9-0.5,17.9-0.9,26.9-1.5C643.2,283.9,644.4,283.2,645.6,282.7z"/>
	<path class="st21" d="M592.9,287.6c-6.5,0.8-12.1,2.8-15.4,1.6c-6.1-2.3-9.7-2.2-12.2,2.5c-9-5.5-9.3-5.5-16.2,0.2
		c-2.6-5-6.3-6.4-11.4-1.2c-1.2-1-2.2-2.5-3.2-2.5c-7.4,0-14.9,0.4-23.7,0.7c-4.3-3.9-8.2-0.6-11.8,2.9c-8.1-5.6-9.2-5.6-13.5-1.1
		c-9.2-0.8-17.3-1.6-25.5-2.3c0-0.7,0-1.4,0-2c16.4,0,32.7,0.1,49.1,0c24.7-0.3,49.4-0.8,74.2-1
		C586.3,285.2,589.2,286.6,592.9,287.6z"/>
	<path class="st21" d="M263.7,264.9c-6.1,1.2-12.2,2.4-18.2,3.6c-3.3-4.3-7.1-4.5-11.7-0.2c-3.5-5.2-7.5-3.9-11.8,0.3
		c-1.5-4.5-4.1-6.2-9.4-3.5c-0.7,0.4-2.4-0.1-3.5-0.3c-3.1-0.5-6.1-1-9.7-0.1c-1.8-1.1-3.6-2.2-5.7-3.5c-2.3,1.3-4.4,2.5-6.9,4
		c-3.7-4.4-8.2-5.2-11.7-2.6c-5-0.8-8.5-1.3-12.1-1.8c0,0.3-0.1,0.6-0.1,0.9c-2.6-1.2-5.1-2.4-9.1-4.2c15.8,0.7,30.5,1.2,45.2,2.1
		c12,0.7,24,1.9,36,2.9C244.5,263.3,254.1,264.1,263.7,264.9z"/>
	<path class="st21" d="M792.1,273c-4.8-3-8.9-2.9-11.9,1.6c-5.9-6.3-9.5-3.2-12.4,0.7c-6.9-3.2-20-2.6-24.3,0.7
		c-7.7-3.8-7.7-3.8-12,1.7c-3.7-0.8-8.2-5.1-11,1.4c-5.2-6.4-9.6-2.9-13.9,0c-2.7-1.6-5-3-8.4-5c29.7-2,58.6-4,87.6-5.7
		c2.4-0.1,5,1.2,7.6,1.8C792.9,271.3,792.5,272.1,792.1,273z"/>
	<path class="st21" d="M839.7,280.4c-0.6,0.8-1.1,1.5-1.7,2.3c-2.4,1-4.9,1.9-8.1,3.2c-3.5-1.4-8.1-6.8-12.4,0.3
		c-3.8-4.5-5.9-4.6-12.7-0.5c-4.8-4.7-9.7-3.8-14.7,0.5c-5.1-3.9-10.1-6-13.7,0.7c-5.5-5.5-7.6-5.4-13-0.5c-3-1.7-6-3.3-10.8-6
		C783,280.4,811.3,280.4,839.7,280.4z"/>
	<path class="st21" d="M586.3,297.1c-5.2,0.5-10.4,1-17.5,1.7c-3-2.9-7.6-3.3-11.9,2.1c-4.8-4.7-9.6-5.9-14.7-0.2
		c-4.6-4.8-8.8-4.4-11.6,0.4c-3.4-1.8-6.5-3.5-10.2-5.5c21.5,0,43.4,0,65.2,0C585.8,296.1,586,296.6,586.3,297.1z"/>
	<path class="st21" d="M223.7,298.6c1.7-0.9,3.3-2.6,5-2.7c11.4-0.6,22.8-1.1,34.2-1.1c7.9,0,15.8,0.9,23.3,1.4
		c-2,1.2-4.3,2.6-7.1,4.3c-4.3-5.9-8-3.9-11.2,1.3c-4.4-4.1-8.6-8.4-14.3-1.1c-4.7-3-9.3-6.6-14.6-0.5c-4.3-5.1-8.7-3.6-13,0.1
		C225.2,299.8,224.4,299.2,223.7,298.6z"/>
	<path class="st21" d="M636.3,299.4c-6.1-4.7-6.5-4.7-14.5,0.9c-4.3-4.5-9.1-6.5-13.7,0.5c-4-4-7.9-5.7-12.4-0.2
		c-1.7-1.7-3.1-3.2-5.9-6c18.4,0,34.7,0,51.7,0C639.8,296,638.3,297.5,636.3,299.4z"/>
	<path class="st21" d="M375,310.7c-4.2-4.2-8.3-4.5-11.6,0.5c-4.7-2.2-8.8-6.2-13.2-0.2c-4.8-4-9.5-5-13.9,0.5
		c-4.6-3.4-9.3-6.2-14-0.6c-2.7-1.5-5-2.7-8.5-4.6c5.1-0.3,9.2-0.9,13.3-0.8c15,0.3,30.1,0.7,45.1,1.3c1.6,0.1,3.2,1.7,4.8,2.6
		C376.3,309.7,375.6,310.2,375,310.7z"/>
	<path class="st21" d="M245.5,270.9c2.2,0.4,4.4,0.8,6.6,1.2c1.7,0.6,3.3,1.2,5.6,1.9c-2.2,1.1-4.2,2-6.6,3.2
		c-3.6-3.5-8.1-4.1-12.5,1.1c-3.3-4-6.4-7.3-10.9-3.5c-5.1-0.8-9.3-1.5-13.5-2.1c-0.1,0.4-0.3,0.8-0.4,1.2c-2-1.2-4.1-2.4-4.9-3
		C220.3,270.9,232.9,270.9,245.5,270.9z"/>
	<path class="st3" d="M338.4,317c-46.5,0-92.9,0-139.4,0c0-0.4,0-0.7,0-1.1c43.3,0,86.6,0,129.8,0C332.1,316,335.2,316.7,338.4,317z
		"/>
	<path class="st21" d="M325.9,280.9c-10.4,0.2-18.8-4-27.1-1.3c-4.2,0-8.5,0-13.5,0c-2.8-0.6-6.9-1.5-12.3-2.7
		c1-0.6,2.8-2.4,4.3-2.3c14.9,1.1,29.9,2.4,44.7,3.8C323,278.5,323.8,279.5,325.9,280.9z"/>
	<path class="st21" d="M295.3,297c2.6-0.4,5.2-1.1,7.8-1.1c17.2-0.1,34.4-0.1,51.4,1.3c-2.9,1.4-5.8,2.8-9.2,4.3
		c-3.2-2.9-7-6-11.5-0.2c-4.9-4.2-9.8-5.1-13.8,0.4c-10-6-10-6-14.6-1.3C301.9,299.3,298.6,298.1,295.3,297L295.3,297z"/>
	<path class="st3" d="M579,317c-40.9,0-81.8,0-122.7,0c0-0.3,0-0.7-0.1-1c38,0,76.1,0,114.1,0C573.2,316,576.1,316.7,579,317z"/>
	<path class="st21" d="M803.2,261.3c1.3-1.1,2.4-3.1,3.8-3.3c11.1-1.1,22.2-1.9,33.4-2.4c2-0.1,4.1,1.6,5.6,3.2
		c-5.3,1-10.9-3.8-13.5,2.6c-6.4-4.2-7.4-5.8-13.4,1.2c-4.4-3.6-9.2-6.3-13.9,1.7C804.5,263.2,803.9,262.2,803.2,261.3z"/>
	<path class="st3" d="M454.6,276.8c7.1,0,14.3-0.1,21.4,0c2.8,0.1,5.6,0.7,8.5,1.1c-0.2,0.9-0.3,1.9-0.7,3.6
		c-4.8-4.4-9.2-4.9-13.2-0.5c-7.2-4.3-8.1-4.3-14,0.9c-9-5.3-9.3-5.3-13.3-0.4c-4.1-1.2-8.1-2.4-12-3.5c5-0.4,10-0.9,15-1.3
		C449.1,276.8,451.9,276.8,454.6,276.8z"/>
	<path class="st3" d="M803.2,317c-35.4,0-70.7,0-106.1,0c3.2-0.4,6.3-1,9.5-1c32.2-0.1,64.4-0.1,96.5-0.1
		C803.1,316.3,803.2,316.6,803.2,317z"/>
	<path class="st3" d="M365,276.8c14,0,28-0.1,42.1,0c2.6,0,5.2,0.7,7.7,1.1c-3.3,0.6-6.6,1.2-11,2c-3.8-3.5-8.5-3.2-12.5,1.5
		c-5.1-0.5-9.3-7.4-14.1-0.5C372.9,279.5,369,278.1,365,276.8z"/>
	<path class="st20" d="M456.2,316c0,0.3,0,0.7,0.1,1c-2.2,0.1-4.4,0.2-6.6,0.3c-18.2-0.1-36.5-0.2-54.7-0.4
		c9.2-0.6,18.4-1.5,27.6-1.6C433.7,315.2,445,315.7,456.2,316z"/>
	<path class="st21" d="M416.5,311.3c-2.4-2.1-3.9-3.5-5.5-4.9c17.3-1.7,20.2-1,18.8,4.9C425.4,308.9,421,304.4,416.5,311.3z"/>
	<path class="st20" d="M678.6,317c-13.8,0-27.6,0-41.3,0c4.5-0.3,9-1,13.5-1C660.1,316.2,669.3,316.7,678.6,317z"/>
	<path class="st20" d="M618.9,317c-7.2,0-14.4,0-21.5,0c0.1-0.2,0.1-0.5,0.2-0.5C604.7,316.6,611.8,316.8,618.9,317z"/>
	<path class="st20" d="M388.2,317c-8.2,0-16.5,0-24.7,0C371.7,317,379.9,317,388.2,317z"/>
	<path class="st21" d="M647.6,298.8c-0.7-1.4-1.4-2.9-2-4.3c0.9-0.2,1.7-0.4,2.6-0.6c0.6,1.5,1.2,2.9,1.8,4.4
		C649.3,298.5,648.4,298.7,647.6,298.8z"/>
	<path class="st21" d="M295.3,297c-0.9,1.1-1.7,2.3-2.6,3.4c-0.7-0.5-1.4-1-2.1-1.6C292.1,298.2,293.7,297.6,295.3,297
		C295.3,297,295.3,297,295.3,297z"/>
	<path class="st21" d="M500.7,297.8c-0.4,1-0.7,2-1.1,3c-0.5-0.1-0.9-0.1-1.4-0.2c0.1-1,0.2-2,0.4-3.1
		C499.3,297.7,500,297.8,500.7,297.8z"/>
	<path class="st20" d="M628.8,317c-2.2,0-4.4,0-6.5,0C624.5,317,626.7,317,628.8,317z"/>
	<path class="st20" d="M690.2,317c-2.7,0-5.4,0-8.2,0C684.8,317,687.5,317,690.2,317z"/>
	<path class="st20" d="M359.9,317c-2.7,0-5.4,0-8.1,0C354.5,317,357.2,317,359.9,317z"/>
	<path class="st20" d="M592.3,317l-0.8,0.1c0,0-0.8-0.1-0.8-0.1C591.3,317,591.8,317,592.3,317z"/>
	<path class="st22" d="M1002.3,318.4c0,1.6,0,3.2,0,4.7c-4.7,0.3-9.4,0.7-14.8,1.1c-2.7-4.3-17.1-6.9-27.6-3.8
		c-2.4-3.1-5.1-6.3-11.1-2.8c-0.7,0.4-3.2-0.8-4.9-1.2c-3.2-0.8-6.5-1.6-11-2.7c1.4-0.6,3.6-2.4,5.5-2.2c13.4,1.3,26.7,3,40.1,4.6
		C986.4,316.8,994.4,317.6,1002.3,318.4z"/>
	<path class="st22" d="M824.6,313.7c4.6-2.7,9.1-5.4,13.7-8c1.1,0.2,2.2,0.3,3.3,0.5c-6.3,6.5-2.6,7.1,4.8,7.7
		c9.5,0.7,18.8,2.9,30.2,4.9c-3.5,3.1-5.4,4.8-7.9,7.1c-1.6-1.8-2.4-3.3-4-4.1c-1.8-0.9-5.6-2.1-6.2-1.7c-9.1,7-7.6-1.3-8.9-2.4
		c-9.1-0.7-16.7-1.3-24.2-1.9C825.1,315,824.8,314.3,824.6,313.7z"/>
	<path class="st22" d="M1004,285.1c0,0.8,0,1.6,0,2.4c-2.8,1-5.6,1.9-9,3.1c-3.6-3.6-7.9-4.4-11.9,0.3c-4.6-1.2-7.9-8.1-12.5-2
		c-11.8-1.3-22.8-2.6-33.9-3.8c0.1-0.5,0.2-1.1,0.3-1.6C959.5,280.3,981.7,285.6,1004,285.1z"/>
	<path class="st22" d="M929.5,251.9c-10.2,6.8-22.6,4.4-34.2,5.1c-4.2,0.3-8.4,0.8-12.7,0.8c-1.8,0-3.6-0.9-5.4-1.4
		c1-1.1,1.8-3,3.1-3.2c5.6-0.7,11.4-1.3,17.1-1.4C908.1,251.7,918.8,251.9,929.5,251.9z"/>
	<path class="st22" d="M920.3,291.5c8-3.1,16.9-1.5,25.4-1.4c8,0.1,16,1.6,24,2.1c5.1,0.3,7.2,1.4,5.8,4.2c-4.2,0-8,0-12.2,0
		c-13.9-1-28.4-1.9-42.9-2.9C920.3,292.8,920.3,292.1,920.3,291.5z"/>
	<path class="st22" d="M988,261.1c-4.9,0.2-10.2-5.6-13.5,1.2c-5-4.9-9.6-4.2-13.8-0.2c-8.8-5.3-18.2-1.7-27.3-1.2
		c-0.2-0.7-0.5-1.4-0.7-2c3.7-0.7,7.3-2,11-2.1c13.2-0.3,26.3-0.1,39.5-0.1C987.5,256.6,989.9,257.4,988,261.1z"/>
	<path class="st22" d="M964.2,325.5c-5.4,1.5-9.6,1.9-15.6-0.7c-5.2-2.3-13.3-1.1-20.1-1.8c-1.9-0.2-3.7-1.5-5.5-2.3
		c1.9-0.8,3.9-2.3,5.6-2.2C940.9,319.6,953.6,319.8,964.2,325.5L964.2,325.5z"/>
	<path class="st22" d="M950.1,302c15.1-0.5,29.3,4.5,44.3,4.8c0.3,0.5,0.6,1.1,0.9,1.6c-2,0.6-4,1.5-6.1,1.7
		c-2.6,0.2-5.4-0.1-9.1-0.2c-1.5-3.4-5.2-4.8-11-1.9c-1,0.5-2.8,0.9-3.9,0.6c-5.2-1.5-10.2-3.3-15.3-4.9
		C950,303.1,950.1,302.6,950.1,302z"/>
	<path class="st22" d="M963,280.1c-4.7-7.4-8.5-1.9-12.2-1.1c-4.2-2-8.4-6-13.4,0.9c-2.2-7.7-9.7-2.4-14.8-4
		c4.4-3,31.2-3.9,45.2-1.7C966.2,276.2,964.8,277.9,963,280.1z"/>
	<path class="st22" d="M991.2,250.1c-8.7,0.4-17.4,0.9-27.4,1.4c-2.4-4.5-8.7-0.1-14.3,0c3.3-4,11.3-4.9,34.6-4.3
		c2.8,0.1,5.6,1.2,8.4,1.9C992.1,249.4,991.7,249.8,991.2,250.1z"/>
	<path class="st22" d="M981.7,269.8c-3.5,0-6.9,0.2-10.4-0.1c-2.8-0.2-5.6-0.9-8.1-2.4c10.9-4.3,21.9,0.4,34.6-1.7
		c-2.6,2.8-4,4.3-5.9,6.3c-1.7-1.1-2.9-2-4.4-3c-1.5,0.9-3,1.8-4.6,2.8C982.4,271.1,982.1,270.5,981.7,269.8z"/>
	<path class="st22" d="M965.3,336c-7,5.7-7.8,5.7-13.2,0.8c-1-0.9-4-0.9-6.1-1c-1.9-0.1-3.9,0.4-5.6,0c-0.5-0.1-0.9-2.8-0.3-3.1
		c1.7-0.7,4.1-1.3,5.9-1C952.2,332.9,958.4,334.4,965.3,336z"/>
	<path class="st22" d="M952.7,269.1c-2.8,0.3-5.5,0.8-8.3,0.9c-1.4,0.1-2.8-0.4-4.1-0.7c0.6-0.9,1-2.6,1.8-2.7
		c4.9-0.7,10-1.1,15-1.3c0.8,0,1.8,1.6,2.7,2.5c-2.1,0.8-4.3,1.7-6.4,2.5C953.1,269.9,952.9,269.5,952.7,269.1z"/>
	<path class="st22" d="M905.1,247.3c5.7-2,11.5-4,17,0C916.4,247.3,910.7,247.3,905.1,247.3z"/>
	<path class="st22" d="M964.2,325.5c6.4-0.2,8.1,1.3,3,6.3C966,329.2,965.1,327.3,964.2,325.5C964.2,325.5,964.2,325.5,964.2,325.5z
		"/>
	<path class="st22" d="M899.8,249.1c-3.8-0.4-7.6-0.7-11.4-1.1c0-0.1,0-0.3,0-0.4c3.8,0,7.6,0,11.4,0
		C899.9,248.1,899.8,248.6,899.8,249.1z"/>
	<path class="st19" d="M554.4,274.5c-0.6,0.6-1.2,1.7-1.8,1.7c-8.3,0.3-16.6,0.4-24.9,0.6c2.1-0.8,4.2-2.2,6.4-2.2
		C540.8,274.3,547.6,274.5,554.4,274.5z"/>
	<path class="st19" d="M395.5,273.4c2.3,0,4.6,0,7,0c0,0.2,0.1,0.4,0.1,0.6c-2.4,0-4.9,0-7.3,0C395.4,273.8,395.5,273.6,395.5,273.4
		z"/>
	<path class="st19" d="M625.6,275.6c-2.8,0-5.6,0-8.4,0.1C620,275.6,622.8,275.6,625.6,275.6z"/>
	<path class="st19" d="M454.6,276.8c-2.7,0-5.5-0.1-8.2-0.1C449.1,276.8,451.9,276.8,454.6,276.8z"/>
	<path class="st19" d="M379,274.6c1.9,0,2.8,0,3.8,0c-0.5,0.3-1,0.7-1.7,0.9C380.8,275.6,380.3,275.2,379,274.6z"/>
	<path class="st19" d="M564.2,275.7c-2.3-0.4-4.5-0.8-6.8-1.2C559.6,274.9,561.9,275.3,564.2,275.7z"/>
	<path class="st19" d="M609.6,274.3c-0.2-0.2-0.4-0.5-0.6-0.7c0.5,0,0.9-0.1,1.4-0.1c0.2,0,0.3,0.3,0.5,0.4
		C610.4,274,610,274.1,609.6,274.3z"/>
	<path class="st11" d="M604.3,253.4c-2.2-0.8-4.5-1.6-6.7-2.4c0-0.5,0-0.9,0.1-1.4c13.7,0.7,27.4,1.3,41.1,2
		C627.3,252.3,615.8,252.8,604.3,253.4z"/>
	<path class="st11" d="M471.3,255.2c1-0.3,2-0.9,3-0.9c24.5,0,49,0,73.6,0c1,0,2,0.6,2.9,0.9C524.3,255.3,497.8,255.2,471.3,255.2z"
		/>
	<path class="st24" d="M333.5,248.2c10.5,0.8,21,1.7,31.5,2.5C355.9,253.4,338.3,252,333.5,248.2z"/>
	<path class="st11" d="M574.8,254.5c-2.7-0.1-5.5-0.2-8.2-0.4c11.3-2,22.6-1.3,34-0.1C591.9,254.1,583.3,254.3,574.8,254.5z"/>
	<path class="st0" d="M820.6,232.7c0.8-0.3,1.6-0.6,2.4-0.9C822.2,232.1,821.4,232.4,820.6,232.7z"/>
	<path class="st0" d="M55.9,216c-0.8,0.5-1.3,1.1-1.8,1.1c-0.6,0-1.2-0.4-1.8-0.6c0.4-0.4,0.8-1,1.3-1.1
		C54.1,215.3,54.8,215.7,55.9,216z"/>
	<path class="st14" d="M108.8,334.9c0.7-0.3,1.5-0.6,2.2-0.9C110.2,334.3,109.5,334.6,108.8,334.9z"/>
	<path class="st3" d="M126,326.7c-1-1-1.9-2-2.9-3c0.4-0.4,0.8-0.8,1.2-1.2c3,0.9,6,1.9,9.5,3c3.3-4.1,7.4-7,13.8-0.1
		C139.8,325.8,132.9,326.2,126,326.7C126,326.7,126,326.7,126,326.7z"/>
	<path class="st11" d="M444.7,216.5c6.1,0.3,12.2,0.6,18.2,0.9C456.7,218.8,450.4,220.3,444.7,216.5z"/>
	<path class="st11" d="M466.3,217.5c3.3,0,6.6,0.1,9.9,0.1C472.8,221,469.5,221.1,466.3,217.5z"/>
	<path class="st11" d="M534.3,217.5c1.1,0,2.2,0,3.3,0c-0.5,0.6-1.1,1.1-1.6,1.7C535.4,218.6,534.9,218.1,534.3,217.5z"/>
	<path class="st11" d="M547.6,217.6c1.1,0,2.2,0,3.3,0c-0.6,0.6-1.1,1.1-1.7,1.7C548.7,218.7,548.1,218.1,547.6,217.6z"/>
	<path class="st12" d="M678.7,211.4c0.6-0.6,1.1-1.1,1.7-1.7c0.5,0.6,1.1,1.1,1.6,1.7C680.9,211.4,679.8,211.4,678.7,211.4z"/>
	<path class="st11" d="M538.9,217.3c0.8,0,1.6,0,2.4,0C540.5,217.3,539.7,217.3,538.9,217.3z"/>
	<path class="st27" d="M519.3,355.2c0,5.5,0,11,0,16.6c-28.7,0-57.5,0-86.2,0c2.8-5.5,5.6-11,8.4-16.5c1.1-0.1,2.1-0.1,3.1-0.2
		C469.5,355.1,494.4,355.1,519.3,355.2z"/>
	<path class="st6" d="M511.1,335.2c24.9,0,49.7,0,74.6,0c-2.4,0.3-4.7,0.9-7.1,0.9c-20.1,0.1-40.2,0.1-60.4,0
		C515.8,336.1,513.5,335.5,511.1,335.2z"/>
</g>
</svg>
